<?xml version="1.0" encoding="utf-8"?>
<!-- Generator: Adobe Illustrator 22.1.0, SVG Export Plug-In . SVG Version: 6.00 Build 0)  -->
<svg version="1.1" id="레이어_1" xmlns="http://www.w3.org/2000/svg" xmlns:xlink="http://www.w3.org/1999/xlink" x="0px"
	 y="0px" viewBox="0 0 1920 342" style="enable-background:new 0 0 1920 342;" xml:space="preserve">
<style type="text/css">
	.st0{fill-rule:evenodd;clip-rule:evenodd;fill:#E6E6E6;}
	.st1{fill-rule:evenodd;clip-rule:evenodd;fill:#B3B3B3;}
	.st2{fill-rule:evenodd;clip-rule:evenodd;fill:#565759;}
	.st3{fill-rule:evenodd;clip-rule:evenodd;fill:#444445;}
	.st4{fill-rule:evenodd;clip-rule:evenodd;fill:#D8BD76;}
	.st5{fill-rule:evenodd;clip-rule:evenodd;fill:#C4AA68;}
	.st6{fill-rule:evenodd;clip-rule:evenodd;fill:#E7D691;}
	.st7{fill-rule:evenodd;clip-rule:evenodd;fill:#DFE9F2;}
	.st8{fill-rule:evenodd;clip-rule:evenodd;fill:#818286;}
	.st9{fill:#C7B299;}
	.st10{fill:#91CEBE;}
	.st11{fill:#999999;}
	.st12{fill:#81B1A3;}
	.st13{fill:#808080;}
	.st14{fill-rule:evenodd;clip-rule:evenodd;fill:#CCD7E0;}
	.st15{fill-rule:evenodd;clip-rule:evenodd;fill:#B5BFC9;}
	.st16{fill:#CCD7E0;}
	.st17{fill:#EC1B23;}
	.st18{fill:#403F41;}
	.st19{fill:#221E1F;}
	.st20{fill:#58595B;}
	.st21{fill:#4D4D4D;}
	.st22{fill:#1A1A1A;}
	.st23{fill:#B3B3B3;}
	.st24{fill:#CCCCCC;}
	.st25{fill:#FFFFFF;}
	.st26{fill:#E6E6E6;}
	.st27{fill:#C1272D;}
	.st28{fill:#3F484D;}
	.st29{font-family:'HelveticaNeue-CondensedBold';}
	.st30{font-size:9px;}
	.st31{font-size:7px;}
	.st32{fill:#3D393A;}
	.st33{fill:#636363;}
	.st34{fill:#28292B;}
	.st35{fill:#232323;}
	.st36{fill:#6ACEF2;}
	.st37{fill:#3A3A3A;}
	.st38{fill:#303030;}
	.st39{fill:none;stroke:#F2F2F2;stroke-miterlimit:10;}
	.st40{fill:#B5BFC9;}
	.st41{fill:#F2F3F3;}
	.st42{fill:#333333;}
	.st43{fill-rule:evenodd;clip-rule:evenodd;fill:#808080;}
	.st44{font-family:'YoonGothicPro760-KSCpc-EUC-H';}
	.st45{font-size:11px;}
	.st46{fill:none;stroke:#FFFFFF;stroke-miterlimit:10;}
	.st47{fill:none;stroke:#3F484D;stroke-width:0.25;stroke-linecap:round;stroke-linejoin:round;}
	.st48{fill:none;stroke:#3F484D;stroke-width:0.25;stroke-linecap:round;stroke-linejoin:round;stroke-dasharray:3.0397,3.0397;}
	.st49{font-family:'HelveticaNeue-Bold';}
	.st50{font-size:21px;}
	.st51{fill:#F2F2F2;}
	.st52{font-size:17px;}
	.st53{opacity:0.3;}
	.st54{fill:#D6B095;}
	.st55{fill:#FAFAFA;}
	.st56{fill:#F9CCAB;}
	.st57{fill:#ED1C24;}
	.st58{fill:#EAF1F2;}
	.st59{opacity:0.31;fill:#737272;}
	.st60{opacity:0.9;fill:#C6B0B1;}
</style>
<g id="modeling">
	<g id="modeling10">
		<g>
			<polygon class="st0" points="1802.5,236.8 1802.5,310.7 1647.5,310.7 1647.5,236.8 1725,208.9 			"/>
			<polygon class="st1" points="1802.5,236.8 1802.5,310.7 1725,310.7 1725,208.9 			"/>
			<polygon class="st2" points="1656.3,239.8 1725,215.7 1793.7,239.8 1793.7,310.7 1656.3,310.7 			"/>
			<polygon class="st3" points="1725,215.7 1793.7,239.8 1793.7,310.7 1725,310.7 			"/>
		</g>
		<g>
			<rect x="1659.7" y="304.7" class="st4" width="8.5" height="6"/>
			<rect x="1696.1" y="304.7" class="st5" width="8.5" height="6"/>
			<rect x="1659.7" y="304.7" class="st6" width="44.9" height="2.6"/>
			<rect x="1682.1" y="304.7" class="st4" width="22.4" height="2.6"/>
		</g>
		<g>
			<g>
				<rect x="1660.6" y="283.2" class="st4" width="20.8" height="20.8"/>
				<rect x="1671" y="283.2" class="st5" width="10.4" height="20.8"/>
				<rect x="1660.1" y="282.9" class="st6" width="21.9" height="3.7"/>
				<rect x="1671" y="282.9" class="st4" width="10.9" height="3.7"/>
			</g>
			<g>
				<rect x="1682.8" y="283.2" class="st4" width="20.8" height="20.8"/>
				<rect x="1693.3" y="283.2" class="st5" width="10.4" height="20.8"/>
				<rect x="1682.3" y="282.9" class="st6" width="21.9" height="3.7"/>
				<rect x="1693.3" y="282.9" class="st4" width="10.9" height="3.7"/>
			</g>
		</g>
		<g>
			<rect x="1660.6" y="261.4" class="st4" width="20.8" height="20.8"/>
			<rect x="1671" y="261.4" class="st5" width="10.4" height="20.8"/>
			<rect x="1660.1" y="261" class="st6" width="21.9" height="3.7"/>
			<rect x="1671" y="261" class="st4" width="10.9" height="3.7"/>
		</g>
		<g>
			<rect x="1682.8" y="261.4" class="st4" width="20.8" height="20.8"/>
			<rect x="1693.3" y="261.4" class="st5" width="10.4" height="20.8"/>
			<rect x="1682.3" y="261" class="st6" width="21.9" height="3.7"/>
			<rect x="1693.3" y="261" class="st4" width="10.9" height="3.7"/>
		</g>
		<g>
			<rect x="1660.6" y="239.3" class="st4" width="20.8" height="20.8"/>
			<rect x="1671" y="239.3" class="st5" width="10.4" height="20.8"/>
			<rect x="1660.1" y="239" class="st6" width="21.9" height="3.7"/>
			<rect x="1671" y="239" class="st4" width="10.9" height="3.7"/>
		</g>
		<g>
			<rect x="1661.5" y="244.6" class="st7" width="7.1" height="3.2"/>
			<g>
				<rect x="1667.3" y="245" class="st8" width="0.8" height="2.4"/>
				<rect x="1665.9" y="245" class="st8" width="0.8" height="2.4"/>
				<rect x="1664.5" y="245" class="st8" width="0.8" height="2.4"/>
				<rect x="1663.3" y="245" class="st8" width="0.8" height="2.4"/>
				<rect x="1662" y="245" class="st8" width="0.8" height="2.4"/>
			</g>
		</g>
		<g>
			<rect x="1661.8" y="266.9" class="st7" width="7.1" height="3.2"/>
			<g>
				<rect x="1667.6" y="267.3" class="st8" width="0.8" height="2.4"/>
				<rect x="1666.3" y="267.3" class="st8" width="0.8" height="2.4"/>
				<rect x="1664.9" y="267.3" class="st8" width="0.8" height="2.4"/>
				<rect x="1663.6" y="267.3" class="st8" width="0.8" height="2.4"/>
				<rect x="1662.3" y="267.3" class="st8" width="0.8" height="2.4"/>
			</g>
		</g>
		<g>
			<rect x="1684" y="266.9" class="st7" width="7.1" height="3.2"/>
			<g>
				<rect x="1689.8" y="267.3" class="st8" width="0.8" height="2.4"/>
				<rect x="1688.5" y="267.3" class="st8" width="0.8" height="2.4"/>
				<rect x="1687.1" y="267.3" class="st8" width="0.8" height="2.4"/>
				<rect x="1685.8" y="267.3" class="st8" width="0.8" height="2.4"/>
				<rect x="1684.5" y="267.3" class="st8" width="0.8" height="2.4"/>
			</g>
		</g>
		<g>
			<rect x="1661.8" y="289" class="st7" width="7.1" height="3.2"/>
			<g>
				<rect x="1667.6" y="289.4" class="st8" width="0.8" height="2.4"/>
				<rect x="1666.3" y="289.4" class="st8" width="0.8" height="2.4"/>
				<rect x="1664.9" y="289.4" class="st8" width="0.8" height="2.4"/>
				<rect x="1663.6" y="289.4" class="st8" width="0.8" height="2.4"/>
				<rect x="1662.3" y="289.4" class="st8" width="0.8" height="2.4"/>
			</g>
		</g>
		<g>
			<rect x="1684" y="289" class="st7" width="7.1" height="3.2"/>
			<g>
				<rect x="1689.8" y="289.4" class="st8" width="0.8" height="2.4"/>
				<rect x="1688.5" y="289.4" class="st8" width="0.8" height="2.4"/>
				<rect x="1687.1" y="289.4" class="st8" width="0.8" height="2.4"/>
				<rect x="1685.8" y="289.4" class="st8" width="0.8" height="2.4"/>
				<rect x="1684.5" y="289.4" class="st8" width="0.8" height="2.4"/>
			</g>
		</g>
		<g>
			<g>
				<g>
					<g>
						<rect x="1707.1" y="304.7" class="st4" width="8.5" height="6"/>
						<rect x="1743.4" y="304.7" class="st5" width="8.5" height="6"/>
						<rect x="1707.1" y="304.7" class="st6" width="44.9" height="2.6"/>
						<rect x="1729.5" y="304.7" class="st4" width="22.4" height="2.6"/>
					</g>
					<g>
						<g>
							<rect x="1708" y="283.2" class="st4" width="20.8" height="20.8"/>
							<rect x="1718.4" y="283.2" class="st5" width="10.4" height="20.8"/>
							<rect x="1707.5" y="282.9" class="st6" width="21.9" height="3.7"/>
							<rect x="1718.4" y="282.9" class="st4" width="10.9" height="3.7"/>
						</g>
						<g>
							<rect x="1730.2" y="283.2" class="st4" width="20.8" height="20.8"/>
							<rect x="1740.6" y="283.2" class="st5" width="10.4" height="20.8"/>
							<rect x="1729.7" y="282.9" class="st6" width="21.9" height="3.7"/>
							<rect x="1740.6" y="282.9" class="st4" width="10.9" height="3.7"/>
						</g>
					</g>
				</g>
				<g>
					<rect x="1707.6" y="261.4" class="st4" width="20.8" height="20.8"/>
					<rect x="1718" y="261.4" class="st5" width="10.4" height="20.8"/>
					<rect x="1707.1" y="261" class="st6" width="21.9" height="3.7"/>
					<rect x="1718" y="261" class="st4" width="10.9" height="3.7"/>
				</g>
			</g>
			<g>
				<rect x="1708.9" y="266.9" class="st7" width="7.1" height="3.2"/>
				<g>
					<rect x="1714.8" y="267.3" class="st8" width="0.8" height="2.4"/>
					<rect x="1713.4" y="267.3" class="st8" width="0.8" height="2.4"/>
					<rect x="1712" y="267.3" class="st8" width="0.8" height="2.4"/>
					<rect x="1710.7" y="267.3" class="st8" width="0.8" height="2.4"/>
					<rect x="1709.5" y="267.3" class="st8" width="0.8" height="2.4"/>
				</g>
			</g>
			<g>
				<rect x="1708.9" y="289" class="st7" width="7.1" height="3.2"/>
				<g>
					<rect x="1714.8" y="289.4" class="st8" width="0.8" height="2.4"/>
					<rect x="1713.4" y="289.4" class="st8" width="0.8" height="2.4"/>
					<rect x="1712" y="289.4" class="st8" width="0.8" height="2.4"/>
					<rect x="1710.7" y="289.4" class="st8" width="0.8" height="2.4"/>
					<rect x="1709.5" y="289.4" class="st8" width="0.8" height="2.4"/>
				</g>
			</g>
			<g>
				<rect x="1731.5" y="289" class="st7" width="7.1" height="3.2"/>
				<g>
					<rect x="1737.3" y="289.4" class="st8" width="0.8" height="2.4"/>
					<rect x="1736" y="289.4" class="st8" width="0.8" height="2.4"/>
					<rect x="1734.6" y="289.4" class="st8" width="0.8" height="2.4"/>
					<rect x="1733.3" y="289.4" class="st8" width="0.8" height="2.4"/>
					<rect x="1732" y="289.4" class="st8" width="0.8" height="2.4"/>
				</g>
			</g>
		</g>
	</g>
	<g id="modeling9">
		<g>
			<g>
				<rect x="1477" y="298.8" class="st4" width="11.4" height="11.4"/>
				<rect x="1525.7" y="298.8" class="st5" width="11.4" height="11.4"/>
				<rect x="1477" y="298.8" class="st6" width="60.1" height="4.9"/>
				<rect x="1507" y="298.8" class="st4" width="30" height="4.9"/>
			</g>
		</g>
		<g>
			<g>
				<rect x="1540.1" y="298.8" class="st4" width="11.4" height="11.4"/>
				<rect x="1588.7" y="298.8" class="st5" width="11.4" height="11.4"/>
				<rect x="1540.1" y="298.8" class="st6" width="60.1" height="4.9"/>
				<rect x="1570.1" y="298.8" class="st4" width="30" height="4.9"/>
			</g>
		</g>
		<g>
			<path class="st2" d="M1591.6,192.9l4.5-1.9c1.9-0.8,4.2,0,5.1,1.8l12.8,22.5c1,1.8,0.3,3.9-1.6,4.6l-4.5,1.9
				c-1.9,0.8-4.2,0-5.1-1.8l-12.8-22.5C1589,195.8,1589.8,193.7,1591.6,192.9z"/>
			<path class="st2" d="M1599.3,219.6l11.1-6.9c0.8-0.5,1.9-0.3,2.4,0.6l2.2,3.6c0.5,0.8,0.3,1.9-0.6,2.4l-11.1,6.9
				c-0.8,0.5-1.9,0.3-2.4-0.6l-2.2-3.6C1598.2,221.2,1598.5,220.1,1599.3,219.6z"/>
			<path class="st3" d="M1593,191.9l3.1-0.9c1.9-0.6,4.1,0,5.1,1.8l12.9,22.5c1,1.8,0.2,3.9-1.7,4.7l-2.3,1L1593,191.9z"/>
			<g>
				<path class="st9" d="M1618.4,199.7l-1.2-4.4l-0.8,0.3c-0.9-1.5-2.6-2.1-4.4-2c-0.7,0-3.2,0.4-5.6,0.7c-2.5,0.4-4.6,0.7-4.2,1.9
					l0.3,0.7c-1.7,0.4-4.1,1.1-10.1,2.7c-3.1,0.8-1.6,5.3,0.8,4.6l0,0.1c-2.2,1-0.3,4.4,2.1,4l0,0.1c-2,1,0.1,4.5,2.6,3.9l0.1,0.2
					l0,0c-1.2,1.1,0.1,2.9,2.3,2.3c5.1-1.3,9.6-2.7,14.7-4.6c2.9-1.1,3.5-0.5,4.6-3.3l0.6-0.2L1618.4,199.7
					C1618.4,199.7,1618.4,199.7,1618.4,199.7z"/>
				<path class="st10" d="M1622.9,207.1c-1.1,0.3-1.9,0.5-2.3,0.6C1621,207.6,1621.8,207.4,1622.9,207.1z"/>
				<path class="st11" d="M1616.6,193.2l0.6,2.1l1.2,4.4c1.9-0.6,9.2-2.6,16.1-4.5v-5.8v-1.3
					C1627.1,190.2,1618.6,192.6,1616.6,193.2z"/>
				<path class="st12" d="M1622.9,207.1c2.7-0.7,7.1-1.9,11.6-3.1v0C1630,205.2,1625.6,206.4,1622.9,207.1z"/>
				<polygon class="st12" points="1620.3,206.7 1620.6,207.8 1620.3,206.7 				"/>
				<path class="st12" d="M1618.4,199.7C1618.4,199.7,1618.4,199.7,1618.4,199.7l1.9,7l0,0L1618.4,199.7z"/>
				<path class="st13" d="M1618.4,199.7l1.9,7l0.3,1c0.4-0.1,1.2-0.3,2.3-0.6c2.7-0.7,7.1-1.9,11.6-3.1v-2v-6.7
					C1627.6,197.2,1620.3,199.2,1618.4,199.7z"/>
			</g>
			<path class="st2" d="M1561,190.3l49.6-11.3c1-0.2,2.1,0.6,2.5,1.8l2.1,7.8c0.3,1.3-0.2,2.5-1.2,2.8l-48.6,15
				c-0.3,0.1-0.6,0.1-1,0l-4.2-15.6C1560.4,190.5,1560.7,190.4,1561,190.3z"/>
			<path class="st3" d="M1614,184.7l1,3.9c0.3,1.3-0.2,2.5-1.2,2.8l-48.6,15c-0.3,0.1-0.6,0.1-1,0l-2.1-7.8L1614,184.7z"/>
			<path class="st3" d="M1613.9,214.9l1.2,1.9c0.5,0.8,0.3,1.9-0.6,2.4l-11.1,6.9c-0.8,0.5-1.9,0.3-2.4-0.6l-1.2-1.9L1613.9,214.9z"
				/>
			
				<rect x="1610.3" y="183.4" transform="matrix(0.9659 -0.2588 0.2588 0.9659 7.0041 423.5736)" class="st14" width="3.8" height="3.6"/>
			
				<rect x="1610.5" y="185.1" transform="matrix(0.9659 -0.2588 0.2588 0.9659 6.7863 423.6638)" class="st15" width="3.8" height="1.9"/>
			<path class="st8" d="M1558.5,189.6l2.1-0.6c0.4-0.1,0.9,0.1,1,0.6l4.6,17c0.1,0.4-0.1,0.9-0.6,1l-2.1,0.6c-0.4,0.1-0.9-0.1-1-0.6
				l-4.6-17C1557.8,190.2,1558.1,189.7,1558.5,189.6z"/>
			<path class="st2" d="M1563.8,198.1l2.2,8.3c0.1,0.5-0.1,1.1-0.5,1.2l-2.1,0.6c-0.4,0.1-0.9-0.2-1-0.8l-2.2-8.3L1563.8,198.1z"/>
		</g>
		<g>
			<rect x="1487.3" y="259.4" class="st4" width="39.4" height="39.4"/>
			<rect x="1507" y="259.4" class="st5" width="19.7" height="39.4"/>
			<rect x="1486.4" y="258.8" class="st6" width="41.3" height="7"/>
			<rect x="1507" y="258.8" class="st4" width="20.7" height="7"/>
			<g>
				<rect x="1489.3" y="269.1" class="st7" width="13.9" height="6.3"/>
				<g>
					<rect x="1500.7" y="269.9" class="st8" width="1.5" height="4.7"/>
					<rect x="1498" y="269.9" class="st8" width="1.5" height="4.7"/>
					<rect x="1495.3" y="269.9" class="st8" width="1.5" height="4.7"/>
					<rect x="1492.8" y="269.9" class="st8" width="1.5" height="4.7"/>
					<rect x="1490.3" y="269.9" class="st8" width="1.5" height="4.7"/>
				</g>
			</g>
		</g>
		<g>
			<rect x="1487.3" y="219.4" class="st4" width="39.4" height="39.4"/>
			<rect x="1507" y="219.4" class="st5" width="19.7" height="39.4"/>
			<rect x="1486.4" y="218.8" class="st6" width="41.3" height="7"/>
			<rect x="1507" y="218.8" class="st4" width="20.7" height="7"/>
			<g>
				<rect x="1489.3" y="229.1" class="st7" width="13.9" height="6.3"/>
				<g>
					<rect x="1500.7" y="229.9" class="st8" width="1.5" height="4.7"/>
					<rect x="1498" y="229.9" class="st8" width="1.5" height="4.7"/>
					<rect x="1495.3" y="229.9" class="st8" width="1.5" height="4.7"/>
					<rect x="1492.8" y="229.9" class="st8" width="1.5" height="4.7"/>
					<rect x="1490.3" y="229.9" class="st8" width="1.5" height="4.7"/>
				</g>
			</g>
		</g>
		<g>
			<rect x="1487.3" y="179.4" class="st4" width="39.4" height="39.4"/>
			<rect x="1507" y="179.4" class="st5" width="19.7" height="39.4"/>
			<rect x="1486.4" y="178.8" class="st6" width="41.3" height="7"/>
			<rect x="1507" y="178.8" class="st4" width="20.7" height="7"/>
			<g>
				<rect x="1489.3" y="189.1" class="st7" width="13.9" height="6.3"/>
				<g>
					<rect x="1500.7" y="189.9" class="st8" width="1.5" height="4.7"/>
					<rect x="1498" y="189.9" class="st8" width="1.5" height="4.7"/>
					<rect x="1495.3" y="189.9" class="st8" width="1.5" height="4.7"/>
					<rect x="1492.8" y="189.9" class="st8" width="1.5" height="4.7"/>
					<rect x="1490.3" y="189.9" class="st8" width="1.5" height="4.7"/>
				</g>
			</g>
		</g>
		<g>
			<rect x="1550.4" y="259.4" class="st4" width="39.4" height="39.4"/>
			<rect x="1570.1" y="259.4" class="st5" width="19.7" height="39.4"/>
			<rect x="1549.4" y="258.8" class="st6" width="41.3" height="7"/>
			<rect x="1570.1" y="258.8" class="st4" width="20.7" height="7"/>
			<g>
				<rect x="1552.3" y="269.1" class="st7" width="13.9" height="6.3"/>
				<g>
					<rect x="1563.7" y="269.9" class="st8" width="1.5" height="4.7"/>
					<rect x="1561.1" y="269.9" class="st8" width="1.5" height="4.7"/>
					<rect x="1558.4" y="269.9" class="st8" width="1.5" height="4.7"/>
					<rect x="1555.9" y="269.9" class="st8" width="1.5" height="4.7"/>
					<rect x="1553.3" y="269.9" class="st8" width="1.5" height="4.7"/>
				</g>
			</g>
		</g>
		<g>
			<rect x="1550.4" y="219.4" class="st4" width="39.4" height="39.4"/>
			<rect x="1570.1" y="219.4" class="st5" width="19.7" height="39.4"/>
			<rect x="1549.4" y="218.8" class="st6" width="41.3" height="7"/>
			<rect x="1570.1" y="218.8" class="st4" width="20.7" height="7"/>
			<g>
				<rect x="1552.3" y="229.1" class="st7" width="13.9" height="6.3"/>
				<g>
					<rect x="1563.7" y="229.9" class="st8" width="1.5" height="4.7"/>
					<rect x="1561.1" y="229.9" class="st8" width="1.5" height="4.7"/>
					<rect x="1558.4" y="229.9" class="st8" width="1.5" height="4.7"/>
					<rect x="1555.9" y="229.9" class="st8" width="1.5" height="4.7"/>
					<rect x="1553.3" y="229.9" class="st8" width="1.5" height="4.7"/>
				</g>
			</g>
		</g>
		<g>
			<g>
				<circle class="st16" cx="1605.9" cy="147.7" r="24.9"/>
				<g>
					<g>
						<g>
							<polygon class="st17" points="1590.7,141.8 1589.5,141.8 1589.5,133.3 1599,133.3 1599,134.5 1590.7,134.5 							"/>
							<polygon class="st17" points="1622.4,141.8 1621.2,141.8 1621.2,134.5 1612.9,134.5 1612.9,133.3 1622.4,133.3 							"/>
						</g>
						<g>
							<polygon class="st17" points="1599,162.1 1589.5,162.1 1589.5,153.6 1590.7,153.6 1590.7,160.9 1599,160.9 							"/>
							<polygon class="st17" points="1622.4,162.1 1612.9,162.1 1612.9,160.9 1621.2,160.9 1621.2,153.6 1622.4,153.6 							"/>
						</g>
					</g>
					<g>
						<rect x="1597.6" y="136.2" class="st18" width="0.5" height="10.4"/>
						<rect x="1598.7" y="136.2" class="st18" width="1" height="10.4"/>
						<rect x="1601.6" y="136.2" class="st18" width="0.9" height="10.4"/>
						<rect x="1593.7" y="136.2" class="st18" width="1.5" height="10.4"/>
						<rect x="1592.1" y="136.2" class="st18" width="1" height="10.4"/>
						<rect x="1596.3" y="136.2" class="st18" width="0.5" height="10.4"/>
						<rect x="1614" y="136.2" class="st18" width="1.7" height="10.4"/>
						<rect x="1603.1" y="136.2" class="st18" width="1.8" height="10.4"/>
						<rect x="1616.4" y="136.2" class="st18" width="3.4" height="10.4"/>
						<rect x="1612.4" y="136.2" class="st18" width="0.9" height="10.4"/>
						<rect x="1609.4" y="136.2" class="st18" width="1.8" height="10.4"/>
						<rect x="1605.5" y="136.2" class="st18" width="2.6" height="10.4"/>
						<rect x="1596.3" y="148.8" class="st18" width="0.5" height="10.4"/>
						<rect x="1609.4" y="148.8" class="st18" width="1.8" height="10.4"/>
						<rect x="1612.4" y="148.8" class="st18" width="0.9" height="10.4"/>
						<rect x="1616.4" y="148.8" class="st18" width="3.4" height="10.4"/>
						<rect x="1605.5" y="148.8" class="st18" width="2.6" height="10.4"/>
						<rect x="1592.1" y="148.8" class="st18" width="1" height="10.4"/>
						<rect x="1614" y="148.8" class="st18" width="1.7" height="10.4"/>
						<rect x="1597.6" y="148.8" class="st18" width="0.5" height="10.4"/>
						<rect x="1593.7" y="148.8" class="st18" width="1.5" height="10.4"/>
						<rect x="1603.1" y="148.8" class="st18" width="1.8" height="10.4"/>
						<rect x="1601.6" y="148.8" class="st18" width="0.9" height="10.4"/>
						<rect x="1598.7" y="148.8" class="st18" width="1" height="10.4"/>
					</g>
					<rect x="1588.8" y="147.2" class="st17" width="34.4" height="1.1"/>
				</g>
			</g>
			<path class="st16" d="M1623.2,164.8c0,0,9,1.3,11.3,11.3c0,0,0.3-11.7-7-17.7L1623.2,164.8z"/>
		</g>
	</g>
	<g id="modeling8">
		<g>
			<g>
				<g>
					<rect x="1333.4" y="305.7" class="st19" width="22.9" height="5"/>
					<polygon class="st19" points="1354.4,301.9 1335.2,301.9 1333.4,305.7 1356.3,305.7 					"/>
					<rect x="1340.4" y="296.4" class="st20" width="9" height="5.5"/>
					<g>
						<rect x="1333.4" y="305.7" class="st18" width="22.9" height="5"/>
					</g>
				</g>
				<g>
					<rect x="1418.1" y="305.7" class="st19" width="22.9" height="5"/>
					<polygon class="st19" points="1439.1,301.9 1420,301.9 1418.1,305.7 1441,305.7 					"/>
					<rect x="1425.1" y="296.4" class="st20" width="9" height="5.5"/>
					<g>
						<rect x="1418.1" y="305.7" class="st18" width="22.9" height="5"/>
					</g>
				</g>
			</g>
			<polygon class="st21" points="1448.5,296.4 1326,296.4 1323.5,275.7 1451,275.7 			"/>
			<g>
				<path class="st22" d="M1393.8,289.3c0,0.6-0.5,1.2-1.2,1.2c-0.6,0-1.2-0.5-1.2-1.2v-8.2c0-0.6,0.5-1.2,1.2-1.2
					c0.6,0,1.2,0.5,1.2,1.2V289.3z"/>
				<path class="st22" d="M1398.4,289.3c0,0.6-0.5,1.2-1.2,1.2c-0.6,0-1.2-0.5-1.2-1.2v-8.2c0-0.6,0.5-1.2,1.2-1.2
					c0.6,0,1.2,0.5,1.2,1.2V289.3z"/>
				<path class="st22" d="M1403,289.3c0,0.6-0.5,1.2-1.2,1.2s-1.2-0.5-1.2-1.2v-8.2c0-0.6,0.5-1.2,1.2-1.2s1.2,0.5,1.2,1.2V289.3z"
					/>
				<path class="st22" d="M1407.7,289.3c0,0.6-0.5,1.2-1.2,1.2c-0.6,0-1.2-0.5-1.2-1.2v-8.2c0-0.6,0.5-1.2,1.2-1.2
					c0.6,0,1.2,0.5,1.2,1.2V289.3z"/>
				<path class="st22" d="M1412.3,289.3c0,0.6-0.5,1.2-1.2,1.2c-0.6,0-1.2-0.5-1.2-1.2v-8.2c0-0.6,0.5-1.2,1.2-1.2
					c0.6,0,1.2,0.5,1.2,1.2V289.3z"/>
				<path class="st22" d="M1416.9,289.3c0,0.6-0.5,1.2-1.2,1.2c-0.6,0-1.2-0.5-1.2-1.2v-8.2c0-0.6,0.5-1.2,1.2-1.2
					c0.6,0,1.2,0.5,1.2,1.2V289.3z"/>
				<path class="st22" d="M1421.6,289.3c0,0.6-0.5,1.2-1.2,1.2c-0.6,0-1.2-0.5-1.2-1.2v-8.2c0-0.6,0.5-1.2,1.2-1.2
					c0.6,0,1.2,0.5,1.2,1.2V289.3z"/>
				<path class="st22" d="M1426.2,289.3c0,0.6-0.5,1.2-1.2,1.2c-0.6,0-1.2-0.5-1.2-1.2v-8.2c0-0.6,0.5-1.2,1.2-1.2
					c0.6,0,1.2,0.5,1.2,1.2V289.3z"/>
				<path class="st22" d="M1430.8,289.3c0,0.6-0.5,1.2-1.2,1.2c-0.6,0-1.2-0.5-1.2-1.2v-8.2c0-0.6,0.5-1.2,1.2-1.2
					c0.6,0,1.2,0.5,1.2,1.2V289.3z"/>
				<path class="st22" d="M1435.5,289.3c0,0.6-0.5,1.2-1.2,1.2c-0.6,0-1.2-0.5-1.2-1.2v-8.2c0-0.6,0.5-1.2,1.2-1.2
					c0.6,0,1.2,0.5,1.2,1.2V289.3z"/>
				<path class="st22" d="M1440.1,289.3c0,0.6-0.5,1.2-1.2,1.2c-0.6,0-1.2-0.5-1.2-1.2v-8.2c0-0.6,0.5-1.2,1.2-1.2
					c0.6,0,1.2,0.5,1.2,1.2V289.3z"/>
				<path class="st22" d="M1444.7,289.3c0,0.6-0.5,1.2-1.2,1.2c-0.6,0-1.2-0.5-1.2-1.2v-8.2c0-0.6,0.5-1.2,1.2-1.2
					c0.6,0,1.2,0.5,1.2,1.2V289.3z"/>
			</g>
		</g>
		<rect x="1317.2" y="211.2" class="st23" width="140" height="64.5"/>
		<rect x="1412.3" y="211.2" class="st24" width="44.9" height="64.5"/>
		<rect x="1424.9" y="217.5" class="st13" width="26.1" height="26.9"/>
		<path class="st25" d="M1437.9,236.7c-1.4,0-2.6,1.1-2.6,2.6c0,1.4,1.1,2.6,2.6,2.6s2.6-1.1,2.6-2.6
			C1440.5,237.9,1439.3,236.7,1437.9,236.7z M1430.6,236.7c-1.4,0-2.6,1.1-2.6,2.6c0,1.4,1.1,2.6,2.6,2.6c1.4,0,2.6-1.1,2.6-2.6
			C1433.1,237.9,1432,236.7,1430.6,236.7z M1445.3,236.7c-1.4,0-2.6,1.1-2.6,2.6c0,1.4,1.1,2.6,2.6,2.6c1.4,0,2.6-1.1,2.6-2.6
			C1447.8,237.9,1446.7,236.7,1445.3,236.7z M1428,220.6v11.2h19.8v-11.2H1428z"/>
	</g>
	<g id="modeling7">
		<rect x="1138" y="175.7" class="st23" width="155" height="95"/>
		<g>
			<g>
				<rect x="1138" y="190.7" class="st26" width="48.1" height="80"/>
				<g>
					<g>
						<rect x="1142.3" y="206.4" class="st23" width="8.2" height="49.5"/>
						<path d="M1150.2,206.7v49h-7.7v-49H1150.2 M1150.7,206.2h-8.7v50h8.7V206.2L1150.7,206.2z"/>
					</g>
					<g>
						<rect x="1152.7" y="206.4" class="st23" width="8.2" height="49.5"/>
						<path d="M1160.7,206.7v49h-7.7v-49H1160.7 M1161.2,206.2h-8.7v50h8.7V206.2L1161.2,206.2z"/>
					</g>
					<g>
						<rect x="1163.2" y="206.4" class="st27" width="8.2" height="49.5"/>
						<path d="M1171.1,206.7v49h-7.7v-49H1171.1 M1171.6,206.2h-8.7v50h8.7V206.2L1171.6,206.2z"/>
					</g>
					<g>
						<rect x="1173.6" y="206.4" class="st23" width="8.2" height="49.5"/>
						<path d="M1181.5,206.7v49h-7.7v-49H1181.5 M1182,206.2h-8.7v50h8.7V206.2L1182,206.2z"/>
					</g>
				</g>
			</g>
			<g>
				<rect x="1191.5" y="190.7" class="st26" width="48.1" height="80"/>
				<g>
					<g>
						<rect x="1195.8" y="206.4" class="st23" width="8.2" height="49.5"/>
						<path d="M1203.7,206.7v49h-7.7v-49H1203.7 M1204.2,206.2h-8.7v50h8.7V206.2L1204.2,206.2z"/>
					</g>
					<g>
						<rect x="1206.2" y="206.4" class="st23" width="8.2" height="49.5"/>
						<path d="M1214.1,206.7v49h-7.7v-49H1214.1 M1214.6,206.2h-8.7v50h8.7V206.2L1214.6,206.2z"/>
					</g>
					<g>
						<rect x="1216.6" y="206.4" class="st27" width="8.2" height="49.5"/>
						<path d="M1224.6,206.7v49h-7.7v-49H1224.6 M1225.1,206.2h-8.7v50h8.7V206.2L1225.1,206.2z"/>
					</g>
					<g>
						<rect x="1227.1" y="206.4" class="st23" width="8.2" height="49.5"/>
						<path d="M1235,206.7v49h-7.7v-49H1235 M1235.5,206.2h-8.7v50h8.7V206.2L1235.5,206.2z"/>
					</g>
				</g>
			</g>
			<rect x="1244.9" y="190.7" class="st26" width="48.1" height="80"/>
			<g>
				<rect x="1138" y="270.7" class="st23" width="155" height="5"/>
			</g>
			<g>
				<g>
					<rect x="1249.2" y="206.4" class="st23" width="8.2" height="49.5"/>
					<path d="M1257.2,206.7v49h-7.7v-49H1257.2 M1257.7,206.2h-8.7v50h8.7V206.2L1257.7,206.2z"/>
				</g>
				<g>
					<rect x="1259.6" y="206.4" class="st23" width="8.2" height="49.5"/>
					<path d="M1267.6,206.7v49h-7.7v-49H1267.6 M1268.1,206.2h-8.7v50h8.7V206.2L1268.1,206.2z"/>
				</g>
				<g>
					<rect x="1270.1" y="206.4" class="st23" width="8.2" height="49.5"/>
					<path d="M1278,206.7v49h-7.7v-49H1278 M1278.5,206.2h-8.7v50h8.7V206.2L1278.5,206.2z"/>
				</g>
				<g>
					<rect x="1280.5" y="206.4" class="st23" width="8.2" height="49.5"/>
					<path d="M1288.5,206.7v49h-7.7v-49H1288.5 M1289,206.2h-8.7v50h8.7V206.2L1289,206.2z"/>
				</g>
			</g>
			<g>
				<rect x="1138" y="175.7" class="st28" width="48.1" height="15"/>
				<rect x="1191.5" y="175.7" class="st28" width="48.1" height="15"/>
				<rect x="1244.9" y="175.7" class="st28" width="48.1" height="15"/>
			</g>
			<text transform="matrix(1 0 0 1 1151.9082 186.1771)" class="st25 st29 st30">50 / 3</text>
			<g>
				<text transform="matrix(1 0 0 1 1144.7249 204.1771)" class="st29 st31">1</text>
				<text transform="matrix(1 0 0 1 1155.1971 204.1771)" class="st29 st31">0</text>
				<text transform="matrix(1 0 0 1 1165.6703 204.1771)" class="st29 st31">2</text>
				<text transform="matrix(1 0 0 1 1176.1436 204.1771)" class="st29 st31">0</text>
			</g>
			<g>
				<text transform="matrix(1 0 0 1 1198.3915 204.1771)" class="st29 st31">0</text>
				<text transform="matrix(1 0 0 1 1208.8638 204.1771)" class="st29 st31">0</text>
				<text transform="matrix(1 0 0 1 1219.3369 204.1771)" class="st29 st31">1</text>
				<text transform="matrix(1 0 0 1 1229.8102 204.1771)" class="st29 st31">0</text>
			</g>
			<g>
				<text transform="matrix(1 0 0 1 1251.5582 204.1771)" class="st29 st31">0</text>
				<text transform="matrix(1 0 0 1 1262.0305 204.1771)" class="st29 st31">0</text>
				<text transform="matrix(1 0 0 1 1272.5035 204.1771)" class="st29 st31">0</text>
				<text transform="matrix(1 0 0 1 1282.9769 204.1771)" class="st29 st31">0</text>
			</g>
			<text transform="matrix(1 0 0 1 1204.9082 186.1771)" class="st25 st29 st30">49 / 1</text>
			<text transform="matrix(1 0 0 1 1258.9082 186.1771)" class="st25 st29 st30">47 / 0</text>
		</g>
		<g>
			<g>
				<g>
					<rect x="1147.9" y="305.7" class="st19" width="22.9" height="5"/>
					<polygon class="st19" points="1169,301.9 1149.8,301.9 1147.9,305.7 1170.8,305.7 					"/>
					<rect x="1154.9" y="296.4" class="st20" width="9" height="5.5"/>
					<g>
						<rect x="1147.9" y="305.7" class="st18" width="22.9" height="5"/>
					</g>
				</g>
				<g>
					<rect x="1260.1" y="305.7" class="st19" width="22.9" height="5"/>
					<polygon class="st19" points="1281.2,301.9 1262,301.9 1260.1,305.7 1283.1,305.7 					"/>
					<rect x="1267.1" y="296.4" class="st20" width="9" height="5.5"/>
					<g>
						<rect x="1260.2" y="305.7" class="st18" width="22.9" height="5"/>
					</g>
				</g>
			</g>
			<polygon class="st21" points="1290.5,296.4 1140.5,296.4 1138,275.7 1293,275.7 			"/>
			<g>
				<path class="st22" d="M1235.8,289.3c0,0.6-0.5,1.2-1.2,1.2c-0.6,0-1.2-0.5-1.2-1.2v-8.2c0-0.6,0.5-1.2,1.2-1.2
					c0.6,0,1.2,0.5,1.2,1.2V289.3z"/>
				<path class="st22" d="M1240.5,289.3c0,0.6-0.5,1.2-1.2,1.2c-0.6,0-1.2-0.5-1.2-1.2v-8.2c0-0.6,0.5-1.2,1.2-1.2
					c0.6,0,1.2,0.5,1.2,1.2V289.3z"/>
				<path class="st22" d="M1245.1,289.3c0,0.6-0.5,1.2-1.2,1.2c-0.6,0-1.2-0.5-1.2-1.2v-8.2c0-0.6,0.5-1.2,1.2-1.2
					c0.6,0,1.2,0.5,1.2,1.2V289.3z"/>
				<path class="st22" d="M1249.7,289.3c0,0.6-0.5,1.2-1.2,1.2c-0.6,0-1.2-0.5-1.2-1.2v-8.2c0-0.6,0.5-1.2,1.2-1.2
					c0.6,0,1.2,0.5,1.2,1.2V289.3z"/>
				<path class="st22" d="M1254.4,289.3c0,0.6-0.5,1.2-1.2,1.2c-0.6,0-1.2-0.5-1.2-1.2v-8.2c0-0.6,0.5-1.2,1.2-1.2
					c0.6,0,1.2,0.5,1.2,1.2V289.3z"/>
				<path class="st22" d="M1259,289.3c0,0.6-0.5,1.2-1.2,1.2c-0.6,0-1.2-0.5-1.2-1.2v-8.2c0-0.6,0.5-1.2,1.2-1.2
					c0.6,0,1.2,0.5,1.2,1.2V289.3z"/>
				<path class="st22" d="M1263.6,289.3c0,0.6-0.5,1.2-1.2,1.2c-0.6,0-1.2-0.5-1.2-1.2v-8.2c0-0.6,0.5-1.2,1.2-1.2
					c0.6,0,1.2,0.5,1.2,1.2V289.3z"/>
				<path class="st22" d="M1268.2,289.3c0,0.6-0.5,1.2-1.2,1.2c-0.6,0-1.2-0.5-1.2-1.2v-8.2c0-0.6,0.5-1.2,1.2-1.2
					c0.6,0,1.2,0.5,1.2,1.2V289.3z"/>
				<path class="st22" d="M1272.9,289.3c0,0.6-0.5,1.2-1.2,1.2c-0.6,0-1.2-0.5-1.2-1.2v-8.2c0-0.6,0.5-1.2,1.2-1.2
					c0.6,0,1.2,0.5,1.2,1.2V289.3z"/>
				<path class="st22" d="M1277.5,289.3c0,0.6-0.5,1.2-1.2,1.2c-0.6,0-1.2-0.5-1.2-1.2v-8.2c0-0.6,0.5-1.2,1.2-1.2
					c0.6,0,1.2,0.5,1.2,1.2V289.3z"/>
				<path class="st22" d="M1282.1,289.3c0,0.6-0.5,1.2-1.2,1.2c-0.6,0-1.2-0.5-1.2-1.2v-8.2c0-0.6,0.5-1.2,1.2-1.2
					c0.6,0,1.2,0.5,1.2,1.2V289.3z"/>
				<path class="st22" d="M1286.8,289.3c0,0.6-0.5,1.2-1.2,1.2c-0.6,0-1.2-0.5-1.2-1.2v-8.2c0-0.6,0.5-1.2,1.2-1.2
					c0.6,0,1.2,0.5,1.2,1.2V289.3z"/>
			</g>
		</g>
	</g>
	<g id="modeling6">
		<rect x="968.8" y="205.4" class="st13" width="60" height="60"/>
		<g>
			<g>
				<g>
					<path class="st13" d="M1044.4,283.3H1026c-4.2,0-7.6-3.4-7.6-7.6v-10.3h1.4v10.3c0,3.4,2.8,6.2,6.2,6.2h18.4
						c3.4,0,6.2-2.8,6.2-6.2v-2.9h1.4v2.9C1052,279.9,1048.6,283.3,1044.4,283.3z"/>
				</g>
			</g>
			<rect x="1049.8" y="268.7" class="st24" width="5.5" height="19.9"/>
			<polygon class="st24" points="1051,272.3 1068,271.7 1068,267.3 1051,266.7 			"/>
			<path class="st24" d="M1038.5,307.1c0,1,0.8,1.9,1.9,1.9h16.8c1,0,1.9-0.8,1.9-1.9v-13.8c0-1-0.8-1.9-1.9-1.9h-16.8
				c-1,0-1.9,0.8-1.9,1.9V307.1z"/>
			<rect x="1035.2" y="302.8" class="st32" width="27.2" height="7.9"/>
			<g>
				<path class="st23" d="M1047.8,288.6c0,2.7,2.2,4.8,4.8,4.8c2.7,0,4.8-2.2,4.8-4.8c0-2.7-2.2-4.8-4.8-4.8
					C1049.9,283.8,1047.8,285.9,1047.8,288.6z"/>
				<path class="st32" d="M1049.8,288.6c0,1.5,1.2,2.7,2.7,2.7c1.5,0,2.7-1.2,2.7-2.7c0-1.5-1.2-2.7-2.7-2.7
					C1051.1,285.9,1049.8,287.1,1049.8,288.6z"/>
			</g>
			<g>
				<path class="st23" d="M1047.8,269.5c0,2.7,2.2,4.8,4.8,4.8c2.7,0,4.8-2.2,4.8-4.8c0-2.7-2.2-4.8-4.8-4.8
					C1049.9,264.7,1047.8,266.8,1047.8,269.5z"/>
				<path class="st32" d="M1049.8,269.5c0,1.5,1.2,2.7,2.7,2.7c1.5,0,2.7-1.2,2.7-2.7c0-1.5-1.2-2.7-2.7-2.7
					C1051.1,266.8,1049.8,268,1049.8,269.5z"/>
			</g>
			<g>
				<g>
					<path class="st26" d="M1042.9,251.4l1.9,1.9c4.3-4.3,11.3-4.3,15.5,0l1.9-1.9C1056.9,246.1,1048.2,246.1,1042.9,251.4z"/>
				</g>
				<g>
					<path class="st26" d="M1047.2,255.7l1.9,1.9c1.9-1.9,5.1-1.9,7,0l1.9-1.9C1055,252.7,1050.2,252.7,1047.2,255.7z"/>
				</g>
				<path class="st26" d="M1051.4,262.3c0.6,0.6,1.7,0.6,2.3,0c0.6-0.6,0.6-1.7,0-2.3c-0.6-0.6-1.7-0.6-2.3,0
					C1050.8,260.6,1050.8,261.7,1051.4,262.3z"/>
				<path class="st26" d="M1051.4,262.3c0.6,0.6,1.7,0.6,2.3,0l-2.3-2.3C1050.8,260.6,1050.8,261.7,1051.4,262.3z"/>
			</g>
			<rect x="1068" y="289.5" class="st13" width="41.5" height="21.2"/>
			<polygon class="st33" points="1097.7,269.5 1079.9,269.5 1068,289.5 1109.5,289.5 			"/>
			<polygon class="st23" points="1088.8,277.2 1084.5,277.2 1078.8,286.8 1088.8,286.8 			"/>
			<polygon class="st23" points="1088.8,277.2 1093.1,277.2 1098.8,286.8 1088.8,286.8 			"/>
			<rect x="1065.9" y="267.3" class="st23" width="6.4" height="4.5"/>
			<g>
				<polygon class="st34" points="1074.5,273.7 1077.2,274.8 1081.8,271.8 1081.5,270.7 1077.4,273 1073.4,271.1 1073,272.5 				"/>
				<polygon class="st34" points="1074.5,265.3 1077.2,264.2 1081.8,267.2 1081.5,268.3 1077.4,266 1073.4,267.9 1073,266.5 				"/>
			</g>
			<g>
				<g>
					<path class="st13" d="M1070.8,266.2c-0.2,1,0.3,1.9,1,2.5c0.5,0.4,0.5,1.3,0,1.7c-0.7,0.6-1.1,1.5-1,2.5c0.2,1.1,1.1,2,2.3,2.2
						c1.6,0.2,2.9-1,2.9-2.6c0-0.8-0.4-1.6-1-2.1c-0.6-0.4-0.5-1.3,0-1.7c0.6-0.5,1-1.2,1-2.1c0-1.5-1.3-2.8-2.9-2.6
						C1071.9,264.1,1070.9,265,1070.8,266.2L1070.8,266.2z"/>
				</g>
				<path class="st32" d="M1073.4,271c0.9,0,1.6,0.7,1.6,1.6c0,0.9-0.7,1.6-1.6,1.6c-0.9,0-1.6-0.7-1.6-1.6
					C1071.8,271.7,1072.5,271,1073.4,271z"/>
				<path class="st32" d="M1073.4,264.9c0.9,0,1.6,0.7,1.6,1.6c0,0.9-0.7,1.6-1.6,1.6c-0.9,0-1.6-0.7-1.6-1.6
					C1071.8,265.6,1072.5,264.9,1073.4,264.9z"/>
			</g>
			<path class="st24" d="M1107.5,253.2c-1.3-8.9,12.2-8.1,10.5-0.6c-0.4,1.9-1.4,4.2-1.4,4.2l0.2,2.3c-0.4,1.6-1.1,5-1.9,5.6
				c-0.8,0.6-4.3,4.3-4.3,4.3l0.9-9.3l-0.2-1.3c0,0-0.8,0.4-1.5,0.6c-0.7,0.2-1.6,0.3-1.8-0.4c-0.2-2-0.3-2.2-0.5-3.4
				C1106.5,254.9,1106.3,254.2,1107.5,253.2z"/>
			<rect x="1118.9" y="312.7" class="st13" width="3.8" height="3.5"/>
			<g>
				<path class="st35" d="M1117.9,316.7L1117.9,316.7h-2c-0.8,0-1.5,0.7-1.5,1.5c0,0.3,0.2,0.5,0.5,0.5h7.1c0.4,0,0.7-0.3,0.7-0.7
					v-2.5h-1.9c-0.4,0-0.7-0.2-0.9-0.5c-0.2-0.3-0.5-0.5-0.8-0.5c-0.4,0-0.8,0.3-0.9,0.7L1117.9,316.7z"/>
			</g>
			<rect x="1107.5" y="312.7" class="st13" width="3.8" height="3.5"/>
			<path class="st23" d="M1113,256.9c0,0,1,1.8-1.5,2.8l-0.2-1.3C1111.4,258.4,1111.9,258,1113,256.9z"/>
			<polygon class="st36" points="1116.8,259.1 1117.7,263.3 1112.8,261.6 			"/>
			<polygon class="st36" points="1111.6,259.7 1108.9,262.7 1112.8,261.6 			"/>
			<path class="st37" d="M1112.7,246.4c7.9-0.1,5.9,8.7,4.3,10.5c-1.9,0-2.1-1.6-2.4-2.3l-0.6-1.2l-0.4,1.9h-0.8
				c0,0,0.3-2.3-0.2-3.4c-0.6-1.2-2.8-1.9-2.8-1.9h0c-0.8,0-1.5-0.3-2.1-0.8c-1.3-1.1,0.4-1.8,0.4-1.8L1112.7,246.4z"/>
			<path class="st23" d="M1113.3,255.4c0,0,0.3-3.2,2-2.3c0,0,0.7,0.8-0.5,1.5c0,0,0.1,1.3-0.7,1.2L1113.3,255.4z"/>
			<g>
				<path class="st35" d="M1106.5,316.7L1106.5,316.7h-2c-0.8,0-1.5,0.7-1.5,1.5c0,0.3,0.2,0.5,0.5,0.5h7.1c0.4,0,0.7-0.3,0.7-0.7
					v-2.5h-1.9c-0.4,0-0.7-0.2-0.9-0.5c-0.2-0.3-0.5-0.5-0.8-0.5c-0.4,0-0.8,0.3-0.9,0.7L1106.5,316.7z"/>
			</g>
			<path class="st13" d="M1111.6,259.7l1.2,1.9l4.1-2.5l5.3,2.7l-1.9,21.4l-8.9,1.3l-3-1.3l-1.7-12.4l-4.6-1.2
				C1103.1,261.7,1106.9,260.8,1111.6,259.7z"/>
			<path class="st28" d="M1102,269.6l-0.5,2.1l-5.3-0.7l-0.8,3l6.1,2.2c2.1,0.7,3.5,0.2,3.9-1.4l1.5-5.9L1102,269.6z"/>
			<path class="st38" d="M1113.8,283.2v6.5c0,0,0,0,0,0l-1.4,24.5h-5.7c-0.5-6.4,1.4-27.7,1.7-31H1113.8z"/>
			<path class="st35" d="M1123.9,314.2h-6.1c0,0-2.5-17.9-4-24.5c0,0,0,0,0,0c-0.2-1-0.4-1.7-0.6-2.1v-4.4h7
				C1120.6,285.4,1123.6,306.1,1123.9,314.2z"/>
			<path class="st24" d="M1103.7,248.1l14.9,3.4c2.2-7-6.3-10.1-10.9-5.1L1103.7,248.1z"/>
			<g>
				<path class="st24" d="M1111.3,272.1c-0.8-2.1-3.9-4.1-4.9,0.5c-0.1,0.4,0.4,0.8,0.8,0.4l-0.2,0.8c-0.1,0.4,0.4,0.6,0.6,0.2
					l0.2-0.4l0,0.9c0,0.4,0.5,0.5,0.7,0.1l0.2-0.7c0,0,0.4,0.7,1.2,0.3l2,0.7l1-1.9C1112.5,272.9,1112.8,273.1,1111.3,272.1z"/>
				<path class="st24" d="M1108.7,269.8c0,0-2.1,0.2-4.2,1.6c0,0,0.2,0.4,1.6,0.1l2-0.4L1108.7,269.8z"/>
			</g>
			<path class="st33" d="M1120.6,261c-4.8,1.6-2.2,6.4-1.1,12.8l-8.3-2.4l-0.9,3.8c13.8,8.8,14.4,2.6,14.6-0.2
				C1126.2,261.4,1120.6,261,1120.6,261z"/>
			<polygon class="st32" points="1098.4,278.2 1108,278.2 1102.9,264.9 1093.2,264.9 			"/>
			<g>
				<path class="st24" d="M1094.5,271.5c0,0,0.2-1.2,1.7-1.1l2.1,0c0,0,0.2,0.6-0.3,0.8l-1.5,0.2l-0.2,0.8L1094.5,271.5z"/>
				<path class="st24" d="M1097.2,272.7v-0.9h1.8c0.2,0,0.4,0.2,0.4,0.4v0.1c0,0.2-0.2,0.4-0.4,0.4H1097.2z"/>
				<path class="st24" d="M1097.2,273.6v-0.9h1.8c0.2,0,0.4,0.2,0.4,0.4v0.1c0,0.2-0.2,0.4-0.4,0.4H1097.2z"/>
				<path class="st24" d="M1097.2,274.6v-0.9h1.8c0.5,0,0.6,0.9,0,0.9H1097.2z"/>
				<path class="st24" d="M1097.2,275.5v-0.9h1.8c0.6,0,0.6,0.9,0,0.9C1098.3,275.5,1097.2,275.5,1097.2,275.5z"/>
				<path class="st24" d="M1098.3,275.5l0.6-3.3l-3.1-0.7h-1.2C1092.4,271.6,1094.5,276.1,1098.3,275.5z"/>
			</g>
			<rect x="1083.8" y="283.3" class="st32" width="10" height="1.2"/>
		</g>
		<g>
			<path class="st26" d="M993.8,130.4h130v0c0,13.8-11.2,25-25,25h-130v0C968.8,141.6,979.9,130.4,993.8,130.4z"/>
			
				<rect x="956.2" y="167.9" transform="matrix(6.123234e-17 -1 1 6.123234e-17 800.8164 1161.6836)" class="st26" width="50" height="25"/>
		</g>
		
			<rect x="1103.9" y="110.6" transform="matrix(6.123234e-17 -1 1 6.123234e-17 988.1711 1234.3289)" class="st26" width="14.7" height="25"/>
		<rect x="973.8" y="210.4" class="st21" width="50" height="50"/>
		<line class="st39" x1="1023.8" y1="260.4" x2="973.8" y2="210.4"/>
		<line class="st39" x1="973.8" y1="260.4" x2="1023.8" y2="210.4"/>
	</g>
	<g id="modeling5">
		<g>
			<g>
				<g>
					<rect x="823.3" y="305.7" class="st19" width="22.9" height="5"/>
					<polygon class="st19" points="844.4,301.9 825.2,301.9 823.3,305.7 846.3,305.7 					"/>
					<rect x="830.3" y="296.4" class="st20" width="9" height="5.5"/>
					<g>
						<rect x="823.3" y="305.7" class="st18" width="22.9" height="5"/>
					</g>
				</g>
				<g>
					<rect x="908" y="305.7" class="st19" width="22.9" height="5"/>
					<polygon class="st19" points="929.1,301.9 909.9,301.9 908,305.7 931,305.7 					"/>
					<rect x="915" y="296.4" class="st20" width="9" height="5.5"/>
					<g>
						<rect x="908.1" y="305.7" class="st18" width="22.9" height="5"/>
					</g>
				</g>
			</g>
			<polygon class="st21" points="938.4,296.4 815.9,296.4 813.4,275.7 940.9,275.7 			"/>
			<g>
				<path class="st22" d="M883.7,289.3c0,0.6-0.5,1.2-1.2,1.2c-0.6,0-1.2-0.5-1.2-1.2v-8.2c0-0.6,0.5-1.2,1.2-1.2
					c0.6,0,1.2,0.5,1.2,1.2V289.3z"/>
				<path class="st22" d="M888.4,289.3c0,0.6-0.5,1.2-1.2,1.2c-0.6,0-1.2-0.5-1.2-1.2v-8.2c0-0.6,0.5-1.2,1.2-1.2
					c0.6,0,1.2,0.5,1.2,1.2V289.3z"/>
				<path class="st22" d="M893,289.3c0,0.6-0.5,1.2-1.2,1.2c-0.6,0-1.2-0.5-1.2-1.2v-8.2c0-0.6,0.5-1.2,1.2-1.2
					c0.6,0,1.2,0.5,1.2,1.2V289.3z"/>
				<path class="st22" d="M897.6,289.3c0,0.6-0.5,1.2-1.2,1.2c-0.6,0-1.2-0.5-1.2-1.2v-8.2c0-0.6,0.5-1.2,1.2-1.2
					c0.6,0,1.2,0.5,1.2,1.2V289.3z"/>
				<path class="st22" d="M902.2,289.3c0,0.6-0.5,1.2-1.2,1.2c-0.6,0-1.2-0.5-1.2-1.2v-8.2c0-0.6,0.5-1.2,1.2-1.2
					c0.6,0,1.2,0.5,1.2,1.2V289.3z"/>
				<path class="st22" d="M906.9,289.3c0,0.6-0.5,1.2-1.2,1.2c-0.6,0-1.2-0.5-1.2-1.2v-8.2c0-0.6,0.5-1.2,1.2-1.2
					c0.6,0,1.2,0.5,1.2,1.2V289.3z"/>
				<path class="st22" d="M911.5,289.3c0,0.6-0.5,1.2-1.2,1.2c-0.6,0-1.2-0.5-1.2-1.2v-8.2c0-0.6,0.5-1.2,1.2-1.2
					c0.6,0,1.2,0.5,1.2,1.2V289.3z"/>
				<path class="st22" d="M916.1,289.3c0,0.6-0.5,1.2-1.2,1.2c-0.6,0-1.2-0.5-1.2-1.2v-8.2c0-0.6,0.5-1.2,1.2-1.2
					c0.6,0,1.2,0.5,1.2,1.2V289.3z"/>
				<path class="st22" d="M920.8,289.3c0,0.6-0.5,1.2-1.2,1.2c-0.6,0-1.2-0.5-1.2-1.2v-8.2c0-0.6,0.5-1.2,1.2-1.2
					c0.6,0,1.2,0.5,1.2,1.2V289.3z"/>
				<path class="st22" d="M925.4,289.3c0,0.6-0.5,1.2-1.2,1.2c-0.6,0-1.2-0.5-1.2-1.2v-8.2c0-0.6,0.5-1.2,1.2-1.2
					c0.6,0,1.2,0.5,1.2,1.2V289.3z"/>
				<path class="st22" d="M930,289.3c0,0.6-0.5,1.2-1.2,1.2c-0.6,0-1.2-0.5-1.2-1.2v-8.2c0-0.6,0.5-1.2,1.2-1.2
					c0.6,0,1.2,0.5,1.2,1.2V289.3z"/>
				<path class="st22" d="M934.7,289.3c0,0.6-0.5,1.2-1.2,1.2c-0.6,0-1.2-0.5-1.2-1.2v-8.2c0-0.6,0.5-1.2,1.2-1.2
					c0.6,0,1.2,0.5,1.2,1.2V289.3z"/>
			</g>
		</g>
		<rect x="807.2" y="211.2" class="st23" width="140" height="64.5"/>
		<rect x="902.3" y="211.2" class="st24" width="44.9" height="64.5"/>
		<rect x="914.8" y="217.5" class="st13" width="26.1" height="26.9"/>
		<path class="st25" d="M927.8,236.7c-1.4,0-2.6,1.1-2.6,2.6c0,1.4,1.1,2.6,2.6,2.6c1.4,0,2.6-1.1,2.6-2.6
			C930.4,237.9,929.3,236.7,927.8,236.7z M920.5,236.7c-1.4,0-2.6,1.1-2.6,2.6c0,1.4,1.1,2.6,2.6,2.6c1.4,0,2.6-1.1,2.6-2.6
			C923.1,237.9,921.9,236.7,920.5,236.7z M935.2,236.7c-1.4,0-2.6,1.1-2.6,2.6c0,1.4,1.1,2.6,2.6,2.6c1.4,0,2.6-1.1,2.6-2.6
			C937.8,237.9,936.6,236.7,935.2,236.7z M917.9,220.6v11.2h19.8v-11.2H917.9z"/>
	</g>
	<g id="modeling4">
		<g>
			<polygon class="st13" points="666,220.7 658.3,213 666,213 			"/>
			<polygon class="st13" points="669.9,220.7 662.2,213 669.9,213 			"/>
			<polygon class="st13" points="673.7,220.7 666,213 673.7,213 			"/>
			<polygon class="st13" points="677.6,220.7 669.9,213 677.6,213 			"/>
			<polygon class="st13" points="681.4,220.7 673.7,213 681.4,213 			"/>
			<polygon class="st13" points="685.3,220.7 677.6,213 685.3,213 			"/>
			<polygon class="st13" points="689.1,220.7 681.4,213 689.1,213 			"/>
			<polygon class="st13" points="693,220.7 685.3,213 693,213 			"/>
			<polygon class="st13" points="696.8,220.7 689.1,213 696.8,213 			"/>
			<polygon class="st13" points="700.7,220.7 693,213 700.7,213 			"/>
			<polygon class="st13" points="704.5,220.7 696.8,213 704.5,213 			"/>
			<polygon class="st13" points="708.4,220.7 700.7,213 708.4,213 			"/>
			<polygon class="st13" points="712.2,220.7 704.5,213 712.2,213 			"/>
			<polygon class="st13" points="716.1,220.7 708.4,213 716.1,213 			"/>
			<polygon class="st13" points="719.9,220.7 712.2,213 719.9,213 			"/>
			<polygon class="st13" points="723.8,220.7 716.1,213 723.8,213 			"/>
		</g>
		<rect x="652.6" y="246.8" class="st11" width="80.6" height="8.7"/>
		<rect x="641.5" y="242.8" class="st40" width="91.7" height="4"/>
		<path class="st23" d="M767.2,232.4c0-6.9-5.6-12.5-12.5-12.5c-6.9,0-12.5,5.6-12.5,12.5v23.2h25V232.4z"/>
		<polygon class="st23" points="766,188.5 649.9,188.5 644.4,200.4 771.5,200.4 		"/>
		<polygon class="st24" points="638.9,200.4 638.9,225.3 662.2,225.3 662.2,214.3 721.7,214.3 721.7,225.3 754.7,225.3 754.7,239.5 
			777.1,239.5 777.1,225.3 777.1,211.9 777.1,200.4 		"/>
		<g>
			<polygon class="st13" points="777.1,288.1 637.1,288.1 637.1,294.6 640.5,305.3 773.6,305.3 777.1,294.6 			"/>
			<g>
				<rect x="648.1" y="305.3" class="st20" width="28.2" height="5.4"/>
				<rect x="737.8" y="305.3" class="st20" width="28.2" height="5.4"/>
			</g>
			<rect x="641.2" y="284.2" class="st20" width="131.7" height="3.8"/>
			<rect x="637.1" y="255.6" class="st13" width="140" height="28.7"/>
			<g>
				<path class="st21" d="M750.1,277.1c0,1.1-0.9,2.1-2.1,2.1c-1.1,0-2.1-0.9-2.1-2.1v-14.4c0-1.1,0.9-2.1,2.1-2.1
					c1.1,0,2.1,0.9,2.1,2.1V277.1z"/>
				<path class="st21" d="M758,277.1c0,1.1-0.9,2.1-2.1,2.1c-1.1,0-2.1-0.9-2.1-2.1v-14.4c0-1.1,0.9-2.1,2.1-2.1
					c1.1,0,2.1,0.9,2.1,2.1V277.1z"/>
				<path class="st21" d="M766,277.1c0,1.1-0.9,2.1-2.1,2.1s-2.1-0.9-2.1-2.1v-14.4c0-1.1,0.9-2.1,2.1-2.1s2.1,0.9,2.1,2.1V277.1z"
					/>
			</g>
			<path class="st21" d="M670,273.3c-1.9,0-3.5,1.5-3.5,3.5c0,1.9,1.5,3.5,3.5,3.5c1.9,0,3.5-1.5,3.5-3.5
				C673.5,274.9,672,273.3,670,273.3z M647.4,273.3c-1.9,0-3.5,1.5-3.5,3.5c0,1.9,1.5,3.5,3.5,3.5s3.5-1.5,3.5-3.5
				C650.9,274.9,649.4,273.3,647.4,273.3z M658.7,273.3c-1.9,0-3.5,1.5-3.5,3.5c0,1.9,1.5,3.5,3.5,3.5c1.9,0,3.5-1.5,3.5-3.5
				C662.2,274.9,660.7,273.3,658.7,273.3z M694.8,262.6v7.3h32.4v-7.3H694.8z M694.8,280.4h32.4v-7.3h-32.4V280.4z"/>
		</g>
	</g>
	<g id="modeling3">
		<g>
			<g>
				<g>
					<rect x="482.3" y="305.7" class="st19" width="22.9" height="5"/>
					<polygon class="st19" points="503.3,301.9 484.2,301.9 482.3,305.7 505.2,305.7 					"/>
					<rect x="489.3" y="296.4" class="st20" width="9" height="5.5"/>
					<g>
						<rect x="482.3" y="305.7" class="st18" width="22.9" height="5"/>
					</g>
				</g>
				<g>
					<rect x="567" y="305.7" class="st19" width="22.9" height="5"/>
					<polygon class="st19" points="588.1,301.9 568.9,301.9 567,305.7 589.9,305.7 					"/>
					<rect x="574" y="296.4" class="st20" width="9" height="5.5"/>
					<g>
						<rect x="567" y="305.7" class="st18" width="22.9" height="5"/>
					</g>
				</g>
			</g>
			<polygon class="st21" points="597.4,296.4 474.9,296.4 472.4,275.7 599.9,275.7 			"/>
			<g>
				<path class="st22" d="M542.7,289.3c0,0.6-0.5,1.2-1.2,1.2c-0.6,0-1.2-0.5-1.2-1.2v-8.2c0-0.6,0.5-1.2,1.2-1.2
					c0.6,0,1.2,0.5,1.2,1.2V289.3z"/>
				<path class="st22" d="M547.3,289.3c0,0.6-0.5,1.2-1.2,1.2c-0.6,0-1.2-0.5-1.2-1.2v-8.2c0-0.6,0.5-1.2,1.2-1.2
					c0.6,0,1.2,0.5,1.2,1.2V289.3z"/>
				<path class="st22" d="M551.9,289.3c0,0.6-0.5,1.2-1.2,1.2c-0.6,0-1.2-0.5-1.2-1.2v-8.2c0-0.6,0.5-1.2,1.2-1.2
					c0.6,0,1.2,0.5,1.2,1.2V289.3z"/>
				<path class="st22" d="M556.6,289.3c0,0.6-0.5,1.2-1.2,1.2c-0.6,0-1.2-0.5-1.2-1.2v-8.2c0-0.6,0.5-1.2,1.2-1.2
					c0.6,0,1.2,0.5,1.2,1.2V289.3z"/>
				<path class="st22" d="M561.2,289.3c0,0.6-0.5,1.2-1.2,1.2c-0.6,0-1.2-0.5-1.2-1.2v-8.2c0-0.6,0.5-1.2,1.2-1.2
					c0.6,0,1.2,0.5,1.2,1.2V289.3z"/>
				<path class="st22" d="M565.8,289.3c0,0.6-0.5,1.2-1.2,1.2c-0.6,0-1.2-0.5-1.2-1.2v-8.2c0-0.6,0.5-1.2,1.2-1.2
					c0.6,0,1.2,0.5,1.2,1.2V289.3z"/>
				<path class="st22" d="M570.5,289.3c0,0.6-0.5,1.2-1.2,1.2c-0.6,0-1.2-0.5-1.2-1.2v-8.2c0-0.6,0.5-1.2,1.2-1.2
					c0.6,0,1.2,0.5,1.2,1.2V289.3z"/>
				<path class="st22" d="M575.1,289.3c0,0.6-0.5,1.2-1.2,1.2c-0.6,0-1.2-0.5-1.2-1.2v-8.2c0-0.6,0.5-1.2,1.2-1.2
					c0.6,0,1.2,0.5,1.2,1.2V289.3z"/>
				<path class="st22" d="M579.7,289.3c0,0.6-0.5,1.2-1.2,1.2c-0.6,0-1.2-0.5-1.2-1.2v-8.2c0-0.6,0.5-1.2,1.2-1.2
					c0.6,0,1.2,0.5,1.2,1.2V289.3z"/>
				<path class="st22" d="M584.4,289.3c0,0.6-0.5,1.2-1.2,1.2c-0.6,0-1.2-0.5-1.2-1.2v-8.2c0-0.6,0.5-1.2,1.2-1.2
					c0.6,0,1.2,0.5,1.2,1.2V289.3z"/>
				<path class="st22" d="M589,289.3c0,0.6-0.5,1.2-1.2,1.2c-0.6,0-1.2-0.5-1.2-1.2v-8.2c0-0.6,0.5-1.2,1.2-1.2
					c0.6,0,1.2,0.5,1.2,1.2V289.3z"/>
				<path class="st22" d="M593.6,289.3c0,0.6-0.5,1.2-1.2,1.2c-0.6,0-1.2-0.5-1.2-1.2v-8.2c0-0.6,0.5-1.2,1.2-1.2
					c0.6,0,1.2,0.5,1.2,1.2V289.3z"/>
			</g>
		</g>
		<rect x="466.1" y="211.2" class="st23" width="140" height="64.5"/>
		<rect x="561.2" y="211.2" class="st24" width="44.9" height="64.5"/>
		<rect x="573.8" y="217.5" class="st13" width="26.1" height="26.9"/>
		<path class="st25" d="M586.8,236.7c-1.4,0-2.6,1.1-2.6,2.6c0,1.4,1.1,2.6,2.6,2.6s2.6-1.1,2.6-2.6
			C589.4,237.9,588.2,236.7,586.8,236.7z M579.5,236.7c-1.4,0-2.6,1.1-2.6,2.6c0,1.4,1.1,2.6,2.6,2.6c1.4,0,2.6-1.1,2.6-2.6
			C582,237.9,580.9,236.7,579.5,236.7z M594.2,236.7c-1.4,0-2.6,1.1-2.6,2.6c0,1.4,1.1,2.6,2.6,2.6c1.4,0,2.6-1.1,2.6-2.6
			C596.7,237.9,595.6,236.7,594.2,236.7z M576.9,220.6v11.2h19.8v-11.2H576.9z"/>
		<rect x="472.4" y="236.3" class="st13" width="82.6" height="33.1"/>
		<polygon class="st13" points="542.4,211.2 484.9,211.2 491.2,230.9 536.2,230.9 		"/>
		<path class="st41" d="M494.2,226.8h39l3.7-11.6h-46.4L494.2,226.8z"/>
		<g>
			<rect x="478.8" y="239.2" class="st42" width="20.9" height="3.3"/>
			<rect x="529.9" y="239.2" class="st42" width="20.9" height="3.3"/>
		</g>
	</g>
	<g id="modeling2">
		<g>
			<g>
				<g>
					<rect x="312" y="305.7" class="st19" width="22.9" height="5"/>
					<polygon class="st19" points="333.1,301.9 313.9,301.9 312,305.7 334.9,305.7 					"/>
					<rect x="319" y="296.4" class="st20" width="9" height="5.5"/>
					<g>
						<rect x="312.1" y="305.7" class="st18" width="22.9" height="5"/>
					</g>
				</g>
				<g>
					<rect x="396.6" y="305.7" class="st19" width="22.9" height="5"/>
					<polygon class="st19" points="417.6,301.9 398.5,301.9 396.6,305.7 419.5,305.7 					"/>
					<rect x="403.6" y="296.4" class="st20" width="9" height="5.5"/>
					<g>
						<rect x="396.6" y="305.7" class="st18" width="22.9" height="5"/>
					</g>
				</g>
			</g>
			<polygon class="st21" points="426.9,296.4 304.7,296.4 302.2,275.7 429.4,275.7 			"/>
			<g>
				<path class="st22" d="M372.4,289.4c0,0.6-0.5,1.2-1.2,1.2c-0.6,0-1.2-0.5-1.2-1.2v-8.2c0-0.6,0.5-1.2,1.2-1.2
					c0.6,0,1.2,0.5,1.2,1.2V289.4z"/>
				<path class="st22" d="M377,289.4c0,0.6-0.5,1.2-1.2,1.2c-0.6,0-1.2-0.5-1.2-1.2v-8.2c0-0.6,0.5-1.2,1.2-1.2
					c0.6,0,1.2,0.5,1.2,1.2V289.4z"/>
				<path class="st22" d="M381.6,289.4c0,0.6-0.5,1.2-1.2,1.2s-1.2-0.5-1.2-1.2v-8.2c0-0.6,0.5-1.2,1.2-1.2s1.2,0.5,1.2,1.2V289.4z"
					/>
				<path class="st22" d="M386.2,289.4c0,0.6-0.5,1.2-1.2,1.2c-0.6,0-1.2-0.5-1.2-1.2v-8.2c0-0.6,0.5-1.2,1.2-1.2
					c0.6,0,1.2,0.5,1.2,1.2V289.4z"/>
				<path class="st22" d="M390.8,289.4c0,0.6-0.5,1.2-1.2,1.2c-0.6,0-1.2-0.5-1.2-1.2v-8.2c0-0.6,0.5-1.2,1.2-1.2
					c0.6,0,1.2,0.5,1.2,1.2V289.4z"/>
				<path class="st22" d="M395.5,289.4c0,0.6-0.5,1.2-1.2,1.2c-0.6,0-1.2-0.5-1.2-1.2v-8.2c0-0.6,0.5-1.2,1.2-1.2
					c0.6,0,1.2,0.5,1.2,1.2V289.4z"/>
				<path class="st22" d="M400.1,289.4c0,0.6-0.5,1.2-1.2,1.2c-0.6,0-1.2-0.5-1.2-1.2v-8.2c0-0.6,0.5-1.2,1.2-1.2
					c0.6,0,1.2,0.5,1.2,1.2V289.4z"/>
				<path class="st22" d="M404.7,289.4c0,0.6-0.5,1.2-1.2,1.2c-0.6,0-1.2-0.5-1.2-1.2v-8.2c0-0.6,0.5-1.2,1.2-1.2
					c0.6,0,1.2,0.5,1.2,1.2V289.4z"/>
				<path class="st22" d="M409.3,289.4c0,0.6-0.5,1.2-1.2,1.2c-0.6,0-1.2-0.5-1.2-1.2v-8.2c0-0.6,0.5-1.2,1.2-1.2
					c0.6,0,1.2,0.5,1.2,1.2V289.4z"/>
				<path class="st22" d="M414,289.4c0,0.6-0.5,1.2-1.2,1.2c-0.6,0-1.2-0.5-1.2-1.2v-8.2c0-0.6,0.5-1.2,1.2-1.2
					c0.6,0,1.2,0.5,1.2,1.2V289.4z"/>
				<path class="st22" d="M418.6,289.4c0,0.6-0.5,1.2-1.2,1.2c-0.6,0-1.2-0.5-1.2-1.2v-8.2c0-0.6,0.5-1.2,1.2-1.2
					c0.6,0,1.2,0.5,1.2,1.2V289.4z"/>
				<path class="st22" d="M423.2,289.4c0,0.6-0.5,1.2-1.2,1.2c-0.6,0-1.2-0.5-1.2-1.2v-8.2c0-0.6,0.5-1.2,1.2-1.2
					c0.6,0,1.2,0.5,1.2,1.2V289.4z"/>
			</g>
		</g>
		<g>
			<g>
				<path class="st43" d="M305.8,255.9h118.7c5.8,0,10.6,4.8,10.6,10.6v0c0,5.8-4.8,10.6-10.6,10.6H305.8c-5.8,0-10.6-4.8-10.6-10.6
					v0C295.1,260.7,299.9,255.9,305.8,255.9z"/>
				<path class="st3" d="M435.1,266.5c0,5.8-4.8,10.6-10.6,10.6H305.8c-5.8,0-10.6-4.8-10.6-10.6H435.1z"/>
				<path class="st14" d="M306,257.6h118.2c4.9,0,8.9,4,8.9,8.9v0c0,4.9-4,8.9-8.9,8.9H306c-4.9,0-8.9-4-8.9-8.9v0
					C297.1,261.6,301.1,257.6,306,257.6z"/>
				<path class="st15" d="M433.1,266.5c0,4.9-4,8.9-8.9,8.9H306c-4.9,0-8.9-4-8.9-8.9H433.1z"/>
				<g>
					<g>
						<path class="st8" d="M306.9,272.1c3.1,0,5.6-2.5,5.6-5.6c0-3.1-2.5-5.6-5.6-5.6c-3.1,0-5.6,2.5-5.6,5.6
							C301.3,269.6,303.8,272.1,306.9,272.1z"/>
						<path class="st2" d="M306.9,261c3.1,0,5.6,2.5,5.6,5.6c0,3.1-2.5,5.6-5.6,5.6V261z"/>
					</g>
					<g>
						<path class="st8" d="M423.3,272.1c3.1,0,5.6-2.5,5.6-5.6c0-3.1-2.5-5.6-5.6-5.6c-3.1,0-5.6,2.5-5.6,5.6
							C417.8,269.6,420.3,272.1,423.3,272.1z"/>
						<path class="st2" d="M423.3,261c3.1,0,5.6,2.5,5.6,5.6c0,3.1-2.5,5.6-5.6,5.6V261z"/>
					</g>
					<g>
						<path class="st8" d="M323.5,272.1c3.1,0,5.6-2.5,5.6-5.6c0-3.1-2.5-5.6-5.6-5.6c-3.1,0-5.6,2.5-5.6,5.6
							C318,269.6,320.5,272.1,323.5,272.1z"/>
						<path class="st2" d="M323.5,261c3.1,0,5.6,2.5,5.6,5.6c0,3.1-2.5,5.6-5.6,5.6V261z"/>
					</g>
					<g>
						<path class="st8" d="M340.2,272.1c3.1,0,5.6-2.5,5.6-5.6c0-3.1-2.5-5.6-5.6-5.6c-3.1,0-5.6,2.5-5.6,5.6
							C334.6,269.6,337.1,272.1,340.2,272.1z"/>
						<path class="st2" d="M340.2,261c3.1,0,5.6,2.5,5.6,5.6c0,3.1-2.5,5.6-5.6,5.6V261z"/>
					</g>
					<g>
						<path class="st8" d="M356.8,272.1c3.1,0,5.6-2.5,5.6-5.6c0-3.1-2.5-5.6-5.6-5.6c-3.1,0-5.6,2.5-5.6,5.6
							C351.2,269.6,353.7,272.1,356.8,272.1z"/>
						<path class="st2" d="M356.8,261c3.1,0,5.6,2.5,5.6,5.6c0,3.1-2.5,5.6-5.6,5.6V261z"/>
					</g>
					<g>
						<path class="st8" d="M373.4,272.1c3.1,0,5.6-2.5,5.6-5.6c0-3.1-2.5-5.6-5.6-5.6c-3.1,0-5.6,2.5-5.6,5.6
							C367.9,269.6,370.4,272.1,373.4,272.1z"/>
						<path class="st2" d="M373.4,261c3.1,0,5.6,2.5,5.6,5.6c0,3.1-2.5,5.6-5.6,5.6V261z"/>
					</g>
					<g>
						<path class="st8" d="M390.1,272.1c3.1,0,5.6-2.5,5.6-5.6c0-3.1-2.5-5.6-5.6-5.6c-3.1,0-5.6,2.5-5.6,5.6
							C384.5,269.6,387,272.1,390.1,272.1z"/>
						<path class="st2" d="M390.1,261c3.1,0,5.6,2.5,5.6,5.6c0,3.1-2.5,5.6-5.6,5.6V261z"/>
					</g>
					<g>
						<path class="st8" d="M406.7,272.1c3.1,0,5.6-2.5,5.6-5.6c0-3.1-2.5-5.6-5.6-5.6c-3.1,0-5.6,2.5-5.6,5.6
							C401.1,269.6,403.6,272.1,406.7,272.1z"/>
						<path class="st2" d="M406.7,261c3.1,0,5.6,2.5,5.6,5.6c0,3.1-2.5,5.6-5.6,5.6V261z"/>
					</g>
				</g>
			</g>
		</g>
	</g>
	<g id="modeling1">
		<rect x="136.6" y="303.1" class="st19" width="129.5" height="7.6"/>
		<polygon class="st20" points="143.4,303.1 259.3,303.1 255.9,297.6 146.8,297.6 		"/>
		<rect x="154.6" y="291.9" class="st24" width="34.5" height="5.8"/>
		<rect x="161.4" y="222.3" class="st11" width="20.9" height="69.6"/>
		<polygon class="st23" points="126.1,189 126.1,204 161.4,204 161.4,222.3 252,222.3 252,189 		"/>
		<polygon class="st24" points="161.4,227 132.8,227 126.1,220.4 126.1,204 161.4,204 		"/>
		<polygon class="st24" points="132.9,178.9 224.8,178.9 231.6,189 126.1,189 		"/>
		<polygon class="st19" points="241,297.6 228.7,297.6 228.7,289.2 236.4,289.2 		"/>
		<polygon class="st19" points="207.2,297.6 219.5,297.6 219.5,289.2 211.9,289.2 		"/>
		<g>
			<polygon class="st19" points="225.7,271.6 224.1,273.2 222.5,271.6 222.5,258.3 225.7,258.3 			"/>
			<rect x="218.5" y="222.3" class="st21" width="11.3" height="20.6"/>
			<polygon class="st11" points="229.7,252.4 218.6,252.4 220.2,258.3 228,258.3 			"/>
			<rect x="216.6" y="242.9" class="st18" width="15" height="9.5"/>
		</g>
		<g>
			<polygon class="st20" points="225.2,261.5 223,263.3 223,265 225.2,263.2 			"/>
			<polygon class="st20" points="223,268.7 225.2,266.9 225.2,265.3 223,267 			"/>
			<polygon class="st20" points="223.2,272.2 225.2,270.6 225.2,269 223,270.8 223,272 			"/>
			<polygon class="st20" points="224.6,258.3 223,259.6 223,261.2 225.2,259.5 225.2,258.3 			"/>
		</g>
		<path class="st25" d="M235.5,209.2c-1.9,0-3.5,1.6-3.5,3.5c0,1.9,1.6,3.5,3.5,3.5c1.9,0,3.5-1.6,3.5-3.5
			C239,210.8,237.4,209.2,235.5,209.2z M221.9,209.2c-1.9,0-3.5,1.6-3.5,3.5c0,1.9,1.6,3.5,3.5,3.5c1.9,0,3.5-1.6,3.5-3.5
			C225.4,210.8,223.8,209.2,221.9,209.2z"/>
		<g>
			<polygon class="st18" points="201.9,203.6 201.9,195.2 199.7,195.2 199.7,203.6 191.2,203.6 191.2,205.8 199.7,205.8 
				199.7,214.3 201.9,214.3 201.9,205.8 210.3,205.8 210.3,203.6 			"/>
			<path class="st19" d="M200.6,193.2c-6.4,0-11.5,5.2-11.5,11.5c0,6.4,5.2,11.5,11.5,11.5c6.4,0,11.5-5.2,11.5-11.5
				C212.1,198.3,206.9,193.2,200.6,193.2z M200.6,212.1c-4.1,0-7.4-3.3-7.4-7.4c0-4.1,3.3-7.4,7.4-7.4c4.1,0,7.4,3.3,7.4,7.4
				C208,208.8,204.7,212.1,200.6,212.1z"/>
			<path class="st19" d="M204.2,204.7c0,2-1.6,3.6-3.6,3.6c-2,0-3.6-1.6-3.6-3.6c0-2,1.6-3.6,3.6-3.6
				C202.6,201.1,204.2,202.7,204.2,204.7z"/>
		</g>
	</g>
</g>
<g id="bg">
	<g>
		<rect x="110" y="90.7" class="st26" width="1700" height="25"/>
		<g>
			<g>
				<rect x="110" y="310.7" class="st28" width="170" height="30"/>
				<text transform="matrix(0.9 0 0 1 115.9192 329.4542)" class="st25 st44 st45">사출 (Front, Rear, Battery Cover)</text>
			</g>
			<line class="st46" x1="280" y1="318.7" x2="280" y2="332.7"/>
		</g>
		<g>
			<g>
				<rect x="280" y="310.7" class="st28" width="170" height="30"/>
				<text transform="matrix(0.9 0 0 1 346.1047 329.4542)" class="st25 st44 st45">컨베이어</text>
			</g>
			<line class="st46" x1="450" y1="318.7" x2="450" y2="332.7"/>
		</g>
		<g>
			<g>
				<rect x="450" y="310.7" class="st28" width="170" height="30"/>
				<text transform="matrix(0.9 0 0 1 516.1047 329.4542)" class="st25 st44 st45">버튼인쇄</text>
			</g>
			<line class="st46" x1="620" y1="318.7" x2="620" y2="332.7"/>
		</g>
		<g>
			<g>
				<rect x="620" y="310.7" class="st28" width="170" height="30"/>
				<text transform="matrix(0.9 0 0 1 695.6086 329.4542)" class="st25 st44 st45">건조</text>
			</g>
			<line class="st46" x1="790" y1="318.7" x2="790" y2="332.7"/>
		</g>
		<g>
			<g>
				<rect x="790" y="310.7" class="st28" width="170" height="30"/>
				<text transform="matrix(0.9 0 0 1 854.6199 329.4542)" class="st25 st44 st45">모델 분류</text>
			</g>
			<line class="st46" x1="960" y1="318.7" x2="960" y2="332.7"/>
		</g>
		<g>
			<g>
				<rect x="960" y="310.7" class="st28" width="170" height="30"/>
				<text transform="matrix(0.9 0 0 1 1035.6086 329.4542)" class="st25 st44 st45">조립</text>
			</g>
			<line class="st46" x1="1130" y1="318.7" x2="1130" y2="332.7"/>
		</g>
		<g>
			<g>
				<rect x="1130" y="310.7" class="st28" width="170" height="30"/>
				<text transform="matrix(0.9 0 0 1 1167.8904 329.4542)" class="st25 st44 st45">혼류 검사 자동화 설비</text>
			</g>
			<line class="st46" x1="1300" y1="318.7" x2="1300" y2="332.7"/>
		</g>
		<g>
			<g>
				<rect x="1300" y="310.7" class="st28" width="170" height="30"/>
				<text transform="matrix(0.9 0 0 1 1382.1873 329.4542)" class="st25 st44 st45">-</text>
			</g>
			<line class="st46" x1="1470" y1="318.7" x2="1470" y2="332.7"/>
		</g>
		<g>
			<g>
				<rect x="1470" y="310.7" class="st28" width="170" height="30"/>
				<text transform="matrix(0.9 0 0 1 1529.1057 329.4542)" class="st25 st44 st45">Packaging</text>
			</g>
			<line class="st46" x1="1640" y1="318.7" x2="1640" y2="332.7"/>
		</g>
		<g>
			<g>
				<rect x="1640" y="310.7" class="st28" width="170" height="30"/>
				<text transform="matrix(0.9 0 0 1 1722.1873 329.4542)" class="st25 st44 st45">-</text>
			</g>
		</g>
		<g>
			<g>
				<line class="st47" x1="280.5" y1="310.2" x2="280.5" y2="308.7"/>
				<line class="st48" x1="280.5" y1="305.7" x2="280.5" y2="118.7"/>
				<line class="st47" x1="280.5" y1="117.2" x2="280.5" y2="115.7"/>
			</g>
		</g>
		<g>
			<g>
				<line class="st47" x1="450.4" y1="310.2" x2="450.4" y2="308.7"/>
				<line class="st48" x1="450.4" y1="305.7" x2="450.4" y2="118.7"/>
				<line class="st47" x1="450.4" y1="117.2" x2="450.4" y2="115.7"/>
			</g>
		</g>
		<g>
			<g>
				<line class="st47" x1="620.4" y1="310.2" x2="620.4" y2="308.7"/>
				<line class="st48" x1="620.4" y1="305.7" x2="620.4" y2="118.7"/>
				<line class="st47" x1="620.4" y1="117.2" x2="620.4" y2="115.7"/>
			</g>
		</g>
		<g>
			<g>
				<line class="st47" x1="790.3" y1="310.2" x2="790.3" y2="308.7"/>
				<line class="st48" x1="790.3" y1="305.7" x2="790.3" y2="118.7"/>
				<line class="st47" x1="790.3" y1="117.2" x2="790.3" y2="115.7"/>
			</g>
		</g>
		<g>
			<g>
				<line class="st47" x1="960.2" y1="310.2" x2="960.2" y2="308.7"/>
				<line class="st48" x1="960.2" y1="305.7" x2="960.2" y2="118.7"/>
				<line class="st47" x1="960.2" y1="117.2" x2="960.2" y2="115.7"/>
			</g>
		</g>
		<g>
			<g>
				<line class="st47" x1="1130.2" y1="310.2" x2="1130.2" y2="308.7"/>
				<line class="st48" x1="1130.2" y1="305.7" x2="1130.2" y2="118.7"/>
				<line class="st47" x1="1130.2" y1="117.2" x2="1130.2" y2="115.7"/>
			</g>
		</g>
		<g>
			<g>
				<line class="st47" x1="1300.1" y1="310.2" x2="1300.1" y2="308.7"/>
				<line class="st48" x1="1300.1" y1="305.7" x2="1300.1" y2="118.7"/>
				<line class="st47" x1="1300.1" y1="117.2" x2="1300.1" y2="115.7"/>
			</g>
		</g>
		<g>
			<g>
				<line class="st47" x1="1470.1" y1="310.2" x2="1470.1" y2="308.7"/>
				<line class="st48" x1="1470.1" y1="305.7" x2="1470.1" y2="118.7"/>
				<line class="st47" x1="1470.1" y1="117.2" x2="1470.1" y2="115.7"/>
			</g>
		</g>
		<g>
			<g>
				<line class="st47" x1="1640" y1="310.2" x2="1640" y2="308.7"/>
				<line class="st48" x1="1640" y1="305.7" x2="1640" y2="118.7"/>
				<line class="st47" x1="1640" y1="117.2" x2="1640" y2="115.7"/>
			</g>
		</g>
		<g>
			<circle class="st28" cx="195" cy="114.7" r="15"/>
			<text transform="matrix(0.9 0 0 1 189.7456 122.4108)" class="st25 st49 st50">1</text>
		</g>
		<g>
			<circle class="st28" cx="365" cy="114.7" r="15"/>
			<text transform="matrix(0.9 0 0 1 359.7456 122.4108)" class="st25 st49 st50">2</text>
		</g>
		<g>
			<circle class="st28" cx="535" cy="114.7" r="15"/>
			<text transform="matrix(0.9 0 0 1 529.7456 122.4108)" class="st25 st49 st50">3</text>
		</g>
		<g>
			<circle class="st28" cx="705" cy="114.7" r="15"/>
			<text transform="matrix(0.9 0 0 1 699.7456 122.4108)" class="st25 st49 st50">4</text>
		</g>
		<g>
			<circle class="st28" cx="875" cy="114.7" r="15"/>
			<text transform="matrix(0.9 0 0 1 869.7456 122.4108)" class="st25 st49 st50">5</text>
		</g>
		<g>
			<circle class="st28" cx="1045" cy="114.7" r="15"/>
			<text transform="matrix(0.9 0 0 1 1039.7456 122.4108)" class="st25 st49 st50">6</text>
		</g>
		<g>
			<circle class="st28" cx="1215" cy="114.7" r="15"/>
			<text transform="matrix(0.9 0 0 1 1209.7456 122.4108)" class="st25 st49 st50">7</text>
		</g>
		<g>
			<circle class="st28" cx="1385" cy="114.7" r="15"/>
			<text transform="matrix(0.9 0 0 1 1379.7456 122.4108)" class="st25 st49 st50">8</text>
		</g>
		<g>
			<circle class="st28" cx="1555" cy="114.7" r="15"/>
			<text transform="matrix(0.9 0 0 1 1549.7456 122.4108)" class="st25 st49 st50">9</text>
		</g>
		<g>
			<circle class="st28" cx="1725" cy="114.7" r="15"/>
			<text transform="matrix(0.9 0 0 1 1714.4917 122.4108)" class="st25 st49 st50">10</text>
		</g>
	</g>
	<rect x="110" y="65.7" class="st51" width="1700" height="25"/>
	<g>
		<circle class="st27" cx="71" cy="90.7" r="29"/>
		<text transform="matrix(0.9 0 0 1 45.9238 97.4108)" class="st25 st49 st52">START</text>
	</g>
	<g>
		<circle class="st28" cx="1849" cy="90.7" r="29"/>
		<text transform="matrix(0.9 0 0 1 1823.6483 97.4108)" class="st25 st49 st52">FINISH</text>
	</g>
</g>
<g id="arrow">
	<g id="arrow1" class="st53">
		<g>
			<path class="st27" d="M257.4,95.3V87c0-0.6,0.4-1,1-1h33.3v10.3h-33.3C257.9,96.3,257.4,95.8,257.4,95.3z"/>
		</g>
		<path class="st27" d="M304.6,90.4l-11.2-9.8c-0.6-0.6-1.7-0.1-1.7,0.8v19.6c0,0.9,1,1.3,1.7,0.8l11.2-9.8
			C305,91.5,305,90.8,304.6,90.4z"/>
	</g>
	<g id="arrow2" class="st53">
		<path class="st28" d="M426,95.3V87c0-0.6,0.4-1,1-1h33.3v10.3H427C426.4,96.3,426,95.8,426,95.3z"/>
		<path class="st28" d="M473.1,90.4l-11.2-9.8c-0.6-0.6-1.7-0.1-1.7,0.8v19.6c0,0.9,1,1.3,1.7,0.8l11.2-9.8
			C473.6,91.5,473.6,90.8,473.1,90.4z"/>
	</g>
	<g id="arrow3" class="st53">
		<path class="st28" d="M595.3,95.3V87c0-0.6,0.4-1,1-1h33.3v10.3h-33.3C595.8,96.3,595.3,95.8,595.3,95.3z"/>
		<path class="st28" d="M642.5,90.4l-11.2-9.8c-0.6-0.6-1.7-0.1-1.7,0.8v19.6c0,0.9,1,1.3,1.7,0.8l11.2-9.8
			C642.9,91.5,642.9,90.8,642.5,90.4z"/>
	</g>
	<g id="arrow4" class="st53">
		<path class="st28" d="M765.3,95.3V87c0-0.6,0.4-1,1-1h33.3v10.3h-33.3C765.7,96.3,765.3,95.8,765.3,95.3z"/>
		<path class="st28" d="M812.4,90.4l-11.2-9.8c-0.6-0.6-1.7-0.1-1.7,0.8v19.6c0,0.9,1,1.3,1.7,0.8l11.2-9.8
			C812.9,91.5,812.9,90.8,812.4,90.4z"/>
	</g>
	<g id="arrow5" class="st53">
		<path class="st28" d="M935.2,95.3V87c0-0.6,0.4-1,1-1h33.3v10.3h-33.3C935.7,96.3,935.2,95.8,935.2,95.3z"/>
		<path class="st28" d="M982.3,90.4l-11.2-9.8c-0.6-0.6-1.7-0.1-1.7,0.8v19.6c0,0.9,1,1.3,1.7,0.8l11.2-9.8
			C982.8,91.5,982.8,90.8,982.3,90.4z"/>
	</g>
	<g id="arrow6" class="st53">
		<path class="st28" d="M1105.1,95.3V87c0-0.6,0.4-1,1-1h33.3v10.3h-33.3C1105.6,96.3,1105.1,95.8,1105.1,95.3z"/>
		<path class="st28" d="M1152.3,90.4l-11.2-9.8c-0.6-0.6-1.7-0.1-1.7,0.8v19.6c0,0.9,1,1.3,1.7,0.8l11.2-9.8
			C1152.7,91.5,1152.7,90.8,1152.3,90.4z"/>
	</g>
	<g id="arrow7" class="st53">
		<path class="st28" d="M1275.1,95.3V87c0-0.6,0.4-1,1-1h33.3v10.3h-33.3C1275.5,96.3,1275.1,95.8,1275.1,95.3z"/>
		<path class="st28" d="M1322.2,90.4l-11.2-9.8c-0.6-0.6-1.7-0.1-1.7,0.8v19.6c0,0.9,1,1.3,1.7,0.8l11.2-9.8
			C1322.7,91.5,1322.7,90.8,1322.2,90.4z"/>
	</g>
	<g id="arrow8" class="st53">
		<path class="st28" d="M1445,95.3V87c0-0.6,0.4-1,1-1h33.3v10.3H1446C1445.5,96.3,1445,95.8,1445,95.3z"/>
		<path class="st28" d="M1492.2,90.4l-11.2-9.8c-0.6-0.6-1.7-0.1-1.7,0.8v19.6c0,0.9,1,1.3,1.7,0.8l11.2-9.8
			C1492.6,91.5,1492.6,90.8,1492.2,90.4z"/>
	</g>
	<g id="arrow9" class="st53">
		<path class="st28" d="M1615,95.3V87c0-0.6,0.4-1,1-1h33.3v10.3H1616C1615.4,96.3,1615,95.8,1615,95.3z"/>
		<path class="st28" d="M1662.1,90.4l-11.2-9.8c-0.6-0.6-1.7-0.1-1.7,0.8v19.6c0,0.9,1,1.3,1.7,0.8l11.2-9.8
			C1662.6,91.5,1662.6,90.8,1662.1,90.4z"/>
	</g>
</g>
<g id="people">
	<g id="people4">
		
			<ellipse transform="matrix(7.138324e-02 -0.9974 0.9974 7.138324e-02 1062.7399 1431.4094)" class="st26" cx="1300.1" cy="144.9" rx="29.2" ry="29.2"/>
		<g>
			<g>
				<polygon class="st54" points="1304.7,147.6 1304.7,147.5 1295.6,147.5 1295.6,147.6 1293.7,145.2 1295.6,144.7 1295.6,140.5 
					1304.7,140.5 1304.7,144.7 1306.5,145.2 				"/>
				<path class="st55" d="M1318.3,161.5h-36.4c0,0,0.9-9.7,1-10.5c0.1-0.8,0.3-2.5,1.9-3.2c0.1,0,0.2-0.1,0.3-0.1
					c0.1,0,0.1,0,0.2-0.1l9.3-2.8v0.1c0,1.5,2.5,2.7,5.5,2.7c3,0,5.5-1.2,5.5-2.7v-0.1l9.3,2.8c0.1,0,0.1,0,0.2,0.1
					c0.1,0,0.2,0.1,0.3,0.1c1.6,0.7,1.8,2.4,1.9,3.2C1317.5,151.8,1318.3,161.5,1318.3,161.5z"/>
				<path class="st54" d="M1293.6,137.8c-0.2,0-0.4,0-0.6-0.1c-0.5-0.3-1-1.1-1.1-2.2c-0.2-1.4,0.2-2.6,1-2.8c0.1,0,0.1,0,0.2,0
					c0,0,0.1,0,0.1,0c0.2,0,0.3,0.1,0.5,0.3c0.4,0.4,0.8,1.1,0.9,2C1294.8,136.4,1294.3,137.7,1293.6,137.8z"/>
				<path class="st54" d="M1308.4,135.5c-0.2,1.2-0.7,2.1-1.4,2.3c-0.1,0-0.3,0.1-0.4,0c-0.7-0.1-1.2-1.4-1-2.8
					c0.1-0.8,0.5-1.6,0.9-2c0.1-0.1,0.3-0.2,0.5-0.3c0.1,0,0.3-0.1,0.4,0c0,0,0,0,0,0C1308.2,132.9,1308.6,134.1,1308.4,135.5z"/>
				<path class="st56" d="M1307.4,135c0,3-1.2,5.7-3,7.4c-1.2,1.1-2.7,1.8-4.3,1.8c-1.7,0-3.3-0.7-4.5-2c-1.7-1.7-2.8-4.3-2.8-7.2
					c0-5,3.3-9.1,7.3-9.1C1304.1,125.8,1307.4,129.9,1307.4,135z"/>
				<rect x="1289" y="151.4" class="st27" width="22.2" height="10.1"/>
				<polygon class="st57" points="1292.8,154.5 1289.6,154.5 1289.6,145.4 1292.8,144.4 				"/>
				<polygon class="st57" points="1307.5,154.5 1310.8,154.5 1310.8,145.4 1307.5,144.4 				"/>
				<path class="st58" d="M1292.2,152.9c0,0.6-0.5,1.1-1.1,1.1c-0.6,0-1.1-0.5-1.1-1.1c0-0.6,0.5-1.1,1.1-1.1
					C1291.8,151.9,1292.2,152.3,1292.2,152.9z"/>
				<path class="st58" d="M1310.2,152.9c0,0.6-0.5,1.1-1.1,1.1c-0.6,0-1.1-0.5-1.1-1.1c0-0.6,0.5-1.1,1.1-1.1
					C1309.7,151.9,1310.2,152.3,1310.2,152.9z"/>
				<path class="st27" d="M1307.7,130v3c0-0.1-0.4-0.3-1.2-0.4c0,0-0.1,0-0.1,0l-0.7,1.1c0,0,0,0,0,0c-0.5,0.7-0.5,0.9-1.1,0.9h-0.1
					c-0.4-0.2-2.2-0.4-4.3-0.4c-2.1,0-3.9,0.2-4.3,0.4h-0.1c-0.6,0-0.7-0.2-1.1-0.9c0,0,0,0,0,0l-0.7-1.1c0,0-0.1,0-0.1,0
					c-0.8,0.1-1.2,0.2-1.2,0.4v-3c0-3.3,3.4-5.6,7.6-5.6C1304.3,124.4,1307.7,126.7,1307.7,130z"/>
				<path class="st59" d="M1306.5,132.6c0,0-0.1,0-0.1,0l-0.7,1.1c0,0,0,0,0,0c-0.5,0.7-0.5,0.9-1.1,0.9h-0.1
					c-0.4-0.2-2.2-0.4-4.3-0.4c-2.1,0-3.9,0.2-4.3,0.4h-0.1c-0.6,0-0.7-0.2-1.1-0.9c0,0,0,0,0,0l-0.7-1.1c0,0-0.1,0-0.1,0
					c1.3-0.3,3.7-0.4,6.4-0.4C1302.8,132.2,1305.2,132.4,1306.5,132.6z"/>
				<polygon class="st60" points="1289,161.5 1289,154 1288.1,161.5 				"/>
				<polygon class="st60" points="1311.2,161.5 1311.2,154 1312.1,161.5 				"/>
			</g>
			<path class="st23" d="M1329,149.4c-2.1,14-14.2,24.8-28.9,24.8c-2.1,0-4.2-0.2-6.1-0.6l-12.1-12.1h36.4c0,0-0.9-9.7-1-10.5
				c-0.1-0.8-0.3-2.5-1.9-3.2c-0.1,0-0.2-0.1-0.3-0.1c-0.1,0-0.1,0-0.2-0.1l-4.2-1.2v-0.9l-3.3-1v0.9l-1.9-0.6v0.1c0,0,0,0.1,0,0.1
				l-0.9-0.2v-2.6c1.1-1.1,2-2.6,2.4-4.4c0.6-0.2,1.1-1.1,1.3-2.2c0.2-1.2-0.1-2.3-0.7-2.7V130c0-1.2-0.4-2.2-1.1-3L1329,149.4z"/>
		</g>
	</g>
	<g id="people3-4">
		
			<ellipse transform="matrix(7.138324e-02 -0.9974 0.9974 7.138324e-02 855.0971 1267.3315)" class="st26" cx="1108.2" cy="174.4" rx="16.1" ry="16.1"/>
		<g>
			<g>
				<polygon class="st54" points="1110.7,175.9 1110.7,175.9 1105.7,175.9 1105.7,175.9 1104.7,174.5 1105.7,174.3 1105.7,172 
					1110.7,172 1110.7,174.3 1111.7,174.5 				"/>
				<path class="st55" d="M1118.2,183.6h-20.1c0,0,0.5-5.4,0.5-5.8c0.1-0.4,0.2-1.4,1.1-1.8c0.1,0,0.1,0,0.2-0.1c0,0,0.1,0,0.1,0
					l5.2-1.5v0c0,0.8,1.4,1.5,3,1.5c1.7,0,3-0.7,3-1.5v0l5.2,1.5c0,0,0.1,0,0.1,0c0.1,0,0.1,0,0.2,0.1c0.9,0.4,1,1.3,1.1,1.8
					C1117.8,178.2,1118.2,183.6,1118.2,183.6z"/>
				<path class="st54" d="M1104.6,170.5c-0.1,0-0.2,0-0.3-0.1c-0.3-0.2-0.5-0.6-0.6-1.2c-0.1-0.8,0.1-1.5,0.5-1.5c0,0,0.1,0,0.1,0
					c0,0,0,0,0.1,0c0.1,0,0.2,0.1,0.3,0.1c0.2,0.2,0.4,0.6,0.5,1.1C1105.2,169.7,1105,170.4,1104.6,170.5z"/>
				<path class="st54" d="M1112.7,169.2c-0.1,0.6-0.4,1.1-0.7,1.2c-0.1,0-0.1,0-0.2,0c-0.4-0.1-0.7-0.8-0.5-1.5
					c0.1-0.5,0.3-0.9,0.5-1.1c0.1-0.1,0.2-0.1,0.3-0.2c0.1,0,0.1,0,0.2,0c0,0,0,0,0,0C1112.6,167.8,1112.9,168.4,1112.7,169.2z"/>
				<path class="st56" d="M1112.2,168.9c0,1.7-0.7,3.2-1.7,4.1c-0.7,0.6-1.5,1-2.4,1c-0.9,0-1.8-0.4-2.5-1.1c-0.9-0.9-1.5-2.4-1.5-4
					c0-2.8,1.8-5,4-5C1110.4,163.9,1112.2,166.1,1112.2,168.9z"/>
				<rect x="1102.1" y="178" class="st27" width="12.2" height="5.6"/>
				<polygon class="st57" points="1104.1,179.7 1102.3,179.7 1102.3,174.7 1104.1,174.1 				"/>
				<polygon class="st57" points="1112.3,179.7 1114.1,179.7 1114.1,174.7 1112.3,174.1 				"/>
				<path class="st58" d="M1103.8,178.8c0,0.3-0.3,0.6-0.6,0.6s-0.6-0.3-0.6-0.6c0-0.3,0.3-0.6,0.6-0.6S1103.8,178.5,1103.8,178.8z"
					/>
				<path class="st58" d="M1113.8,178.8c0,0.3-0.3,0.6-0.6,0.6c-0.3,0-0.6-0.3-0.6-0.6c0-0.3,0.3-0.6,0.6-0.6
					C1113.5,178.2,1113.8,178.5,1113.8,178.8z"/>
				<path class="st27" d="M1112.4,166.1v1.7c0-0.1-0.2-0.1-0.7-0.2c0,0,0,0-0.1,0l-0.4,0.6c0,0,0,0,0,0c-0.3,0.4-0.3,0.5-0.6,0.5
					h-0.1c-0.2-0.1-1.2-0.2-2.4-0.2c-1.2,0-2.1,0.1-2.4,0.2h-0.1c-0.3,0-0.4-0.1-0.6-0.5c0,0,0,0,0,0l-0.4-0.6c0,0,0,0-0.1,0
					c-0.4,0.1-0.7,0.1-0.7,0.2v-1.7c0-1.8,1.9-3.1,4.2-3.1C1110.5,163.1,1112.4,164.3,1112.4,166.1z"/>
				<path class="st59" d="M1111.7,167.6C1111.7,167.6,1111.7,167.6,1111.7,167.6l-0.5,0.6c0,0,0,0,0,0c-0.3,0.4-0.3,0.5-0.6,0.5
					h-0.1c-0.2-0.1-1.2-0.2-2.4-0.2c-1.2,0-2.1,0.1-2.4,0.2h-0.1c-0.3,0-0.4-0.1-0.6-0.5c0,0,0,0,0,0l-0.4-0.6c0,0,0,0-0.1,0
					c0.7-0.1,2-0.2,3.5-0.2C1109.7,167.4,1111,167.5,1111.7,167.6z"/>
				<polygon class="st60" points="1102.1,183.6 1102.1,179.4 1101.5,183.6 				"/>
				<polygon class="st60" points="1114.3,183.6 1114.3,179.4 1114.8,183.6 				"/>
			</g>
			<path class="st23" d="M1124.1,176.9c-1.2,7.8-7.9,13.7-16,13.7c-1.2,0-2.3-0.1-3.4-0.4l-6.7-6.7h20.1c0,0-0.5-5.4-0.5-5.8
				c-0.1-0.4-0.2-1.4-1.1-1.8c0,0-0.1,0-0.2-0.1c0,0-0.1,0-0.1,0l-2.3-0.7v-0.5l-1.8-0.6v0.5l-1.1-0.3v0c0,0,0,0,0,0.1l-0.5-0.1
				v-1.4c0.6-0.6,1.1-1.4,1.3-2.4c0.3-0.1,0.6-0.6,0.7-1.2c0.1-0.7-0.1-1.3-0.4-1.5v-1.6c0-0.6-0.2-1.2-0.6-1.7L1124.1,176.9z"/>
		</g>
	</g>
	<g id="people3-3">
		
			<ellipse transform="matrix(7.138324e-02 -0.9974 0.9974 7.138324e-02 825.1036 1235.1147)" class="st26" cx="1075.9" cy="174.4" rx="16.1" ry="16.1"/>
		<g>
			<g>
				<polygon class="st54" points="1078.4,175.9 1078.4,175.9 1073.4,175.9 1073.4,175.9 1072.4,174.5 1073.4,174.3 1073.4,172 
					1078.4,172 1078.4,174.3 1079.4,174.5 				"/>
				<path class="st55" d="M1085.9,183.6h-20.1c0,0,0.5-5.4,0.5-5.8c0.1-0.4,0.2-1.4,1.1-1.8c0.1,0,0.1,0,0.2-0.1c0,0,0.1,0,0.1,0
					l5.2-1.5v0c0,0.8,1.4,1.5,3,1.5c1.7,0,3-0.7,3-1.5v0l5.2,1.5c0,0,0.1,0,0.1,0c0.1,0,0.1,0,0.2,0.1c0.9,0.4,1,1.3,1.1,1.8
					C1085.5,178.2,1085.9,183.6,1085.9,183.6z"/>
				<path class="st54" d="M1072.3,170.5c-0.1,0-0.2,0-0.3-0.1c-0.3-0.2-0.5-0.6-0.6-1.2c-0.1-0.8,0.1-1.5,0.5-1.5c0,0,0.1,0,0.1,0
					c0,0,0,0,0.1,0c0.1,0,0.2,0.1,0.3,0.1c0.2,0.2,0.4,0.6,0.5,1.1C1072.9,169.7,1072.7,170.4,1072.3,170.5z"/>
				<path class="st54" d="M1080.4,169.2c-0.1,0.6-0.4,1.1-0.7,1.2c-0.1,0-0.1,0-0.2,0c-0.4-0.1-0.7-0.8-0.5-1.5
					c0.1-0.5,0.3-0.9,0.5-1.1c0.1-0.1,0.2-0.1,0.3-0.2c0.1,0,0.1,0,0.2,0c0,0,0,0,0,0C1080.3,167.8,1080.6,168.4,1080.4,169.2z"/>
				<path class="st56" d="M1079.9,168.9c0,1.7-0.7,3.2-1.7,4.1c-0.7,0.6-1.5,1-2.4,1c-0.9,0-1.8-0.4-2.5-1.1c-0.9-0.9-1.5-2.4-1.5-4
					c0-2.8,1.8-5,4-5C1078.1,163.9,1079.9,166.1,1079.9,168.9z"/>
				<rect x="1069.8" y="178" class="st27" width="12.2" height="5.6"/>
				<polygon class="st57" points="1071.8,179.7 1070,179.7 1070,174.7 1071.8,174.1 				"/>
				<polygon class="st57" points="1080,179.7 1081.8,179.7 1081.8,174.7 1080,174.1 				"/>
				<path class="st58" d="M1071.5,178.8c0,0.3-0.3,0.6-0.6,0.6c-0.3,0-0.6-0.3-0.6-0.6c0-0.3,0.3-0.6,0.6-0.6
					C1071.3,178.2,1071.5,178.5,1071.5,178.8z"/>
				<path class="st58" d="M1081.5,178.8c0,0.3-0.3,0.6-0.6,0.6c-0.3,0-0.6-0.3-0.6-0.6c0-0.3,0.3-0.6,0.6-0.6
					C1081.2,178.2,1081.5,178.5,1081.5,178.8z"/>
				<path class="st27" d="M1080.1,166.1v1.7c0-0.1-0.2-0.1-0.7-0.2c0,0,0,0-0.1,0l-0.4,0.6c0,0,0,0,0,0c-0.3,0.4-0.3,0.5-0.6,0.5
					h-0.1c-0.2-0.1-1.2-0.2-2.4-0.2c-1.2,0-2.1,0.1-2.4,0.2h-0.1c-0.3,0-0.4-0.1-0.6-0.5c0,0,0,0,0,0l-0.4-0.6c0,0,0,0-0.1,0
					c-0.4,0.1-0.7,0.1-0.7,0.2v-1.7c0-1.8,1.9-3.1,4.2-3.1C1078.2,163.1,1080.1,164.3,1080.1,166.1z"/>
				<path class="st59" d="M1079.4,167.6C1079.4,167.6,1079.4,167.6,1079.4,167.6l-0.5,0.6c0,0,0,0,0,0c-0.3,0.4-0.3,0.5-0.6,0.5
					h-0.1c-0.2-0.1-1.2-0.2-2.4-0.2c-1.2,0-2.1,0.1-2.4,0.2h-0.1c-0.3,0-0.4-0.1-0.6-0.5c0,0,0,0,0,0l-0.4-0.6c0,0,0,0-0.1,0
					c0.7-0.1,2-0.2,3.5-0.2C1077.4,167.4,1078.7,167.5,1079.4,167.6z"/>
				<polygon class="st60" points="1069.8,183.6 1069.8,179.4 1069.2,183.6 				"/>
				<polygon class="st60" points="1082,183.6 1082,179.4 1082.5,183.6 				"/>
			</g>
			<path class="st23" d="M1091.8,176.9c-1.2,7.8-7.9,13.7-16,13.7c-1.2,0-2.3-0.1-3.4-0.4l-6.7-6.7h20.1c0,0-0.5-5.4-0.5-5.8
				c-0.1-0.4-0.2-1.4-1.1-1.8c0,0-0.1,0-0.2-0.1c0,0-0.1,0-0.1,0l-2.3-0.7v-0.5l-1.8-0.6v0.5l-1.1-0.3v0c0,0,0,0,0,0.1l-0.5-0.1
				v-1.4c0.6-0.6,1.1-1.4,1.3-2.4c0.3-0.1,0.6-0.6,0.7-1.2c0.1-0.7-0.1-1.3-0.4-1.5v-1.6c0-0.6-0.2-1.2-0.6-1.7L1091.8,176.9z"/>
		</g>
	</g>
	<g id="people3-2">
		
			<ellipse transform="matrix(7.138324e-02 -0.9974 0.9974 7.138324e-02 795.1101 1202.8981)" class="st26" cx="1043.6" cy="174.4" rx="16.1" ry="16.1"/>
		<g>
			<g>
				<polygon class="st54" points="1046.1,175.9 1046.1,175.9 1041.1,175.9 1041.1,175.9 1040.1,174.5 1041.1,174.3 1041.1,172 
					1046.1,172 1046.1,174.3 1047.1,174.5 				"/>
				<path class="st55" d="M1053.6,183.6h-20.1c0,0,0.5-5.4,0.5-5.8c0.1-0.4,0.2-1.4,1.1-1.8c0.1,0,0.1,0,0.2-0.1c0,0,0.1,0,0.1,0
					l5.2-1.5v0c0,0.8,1.4,1.5,3,1.5c1.7,0,3-0.7,3-1.5v0l5.2,1.5c0,0,0.1,0,0.1,0c0.1,0,0.1,0,0.2,0.1c0.9,0.4,1,1.3,1.1,1.8
					C1053.2,178.2,1053.6,183.6,1053.6,183.6z"/>
				<path class="st54" d="M1040,170.5c-0.1,0-0.2,0-0.3-0.1c-0.3-0.2-0.5-0.6-0.6-1.2c-0.1-0.8,0.1-1.5,0.5-1.5c0,0,0.1,0,0.1,0
					c0,0,0,0,0.1,0c0.1,0,0.2,0.1,0.3,0.1c0.2,0.2,0.4,0.6,0.5,1.1C1040.6,169.7,1040.4,170.4,1040,170.5z"/>
				<path class="st54" d="M1048.1,169.2c-0.1,0.6-0.4,1.1-0.7,1.2c-0.1,0-0.1,0-0.2,0c-0.4-0.1-0.7-0.8-0.5-1.5
					c0.1-0.5,0.3-0.9,0.5-1.1c0.1-0.1,0.2-0.1,0.3-0.2c0.1,0,0.1,0,0.2,0c0,0,0,0,0,0C1048,167.8,1048.3,168.4,1048.1,169.2z"/>
				<path class="st56" d="M1047.6,168.9c0,1.7-0.7,3.2-1.7,4.1c-0.7,0.6-1.5,1-2.4,1c-0.9,0-1.8-0.4-2.5-1.1c-0.9-0.9-1.5-2.4-1.5-4
					c0-2.8,1.8-5,4-5C1045.8,163.9,1047.6,166.1,1047.6,168.9z"/>
				<rect x="1037.5" y="178" class="st27" width="12.2" height="5.6"/>
				<polygon class="st57" points="1039.5,179.7 1037.7,179.7 1037.7,174.7 1039.5,174.1 				"/>
				<polygon class="st57" points="1047.7,179.7 1049.5,179.7 1049.5,174.7 1047.7,174.1 				"/>
				<path class="st58" d="M1039.2,178.8c0,0.3-0.3,0.6-0.6,0.6s-0.6-0.3-0.6-0.6c0-0.3,0.3-0.6,0.6-0.6S1039.2,178.5,1039.2,178.8z"
					/>
				<path class="st58" d="M1049.2,178.8c0,0.3-0.3,0.6-0.6,0.6c-0.3,0-0.6-0.3-0.6-0.6c0-0.3,0.3-0.6,0.6-0.6
					C1048.9,178.2,1049.2,178.5,1049.2,178.8z"/>
				<path class="st27" d="M1047.8,166.1v1.7c0-0.1-0.2-0.1-0.7-0.2c0,0,0,0-0.1,0l-0.4,0.6c0,0,0,0,0,0c-0.3,0.4-0.3,0.5-0.6,0.5
					h-0.1c-0.2-0.1-1.2-0.2-2.4-0.2c-1.2,0-2.1,0.1-2.4,0.2h-0.1c-0.3,0-0.4-0.1-0.6-0.5c0,0,0,0,0,0l-0.4-0.6c0,0,0,0-0.1,0
					c-0.4,0.1-0.7,0.1-0.7,0.2v-1.7c0-1.8,1.9-3.1,4.2-3.1C1045.9,163.1,1047.8,164.3,1047.8,166.1z"/>
				<path class="st59" d="M1047.1,167.6C1047.1,167.6,1047.1,167.6,1047.1,167.6l-0.5,0.6c0,0,0,0,0,0c-0.3,0.4-0.3,0.5-0.6,0.5
					h-0.1c-0.2-0.1-1.2-0.2-2.4-0.2c-1.2,0-2.1,0.1-2.4,0.2h-0.1c-0.3,0-0.4-0.1-0.6-0.5c0,0,0,0,0,0l-0.4-0.6c0,0,0,0-0.1,0
					c0.7-0.1,2-0.2,3.5-0.2C1045.1,167.4,1046.4,167.5,1047.1,167.6z"/>
				<polygon class="st60" points="1037.5,183.6 1037.5,179.4 1036.9,183.6 				"/>
				<polygon class="st60" points="1049.7,183.6 1049.7,179.4 1050.2,183.6 				"/>
			</g>
			<path class="st23" d="M1059.5,176.9c-1.2,7.8-7.9,13.7-16,13.7c-1.2,0-2.3-0.1-3.4-0.4l-6.7-6.7h20.1c0,0-0.5-5.4-0.5-5.8
				c-0.1-0.4-0.2-1.4-1.1-1.8c0,0-0.1,0-0.2-0.1c0,0-0.1,0-0.1,0l-2.3-0.7v-0.5l-1.8-0.6v0.5l-1.1-0.3v0c0,0,0,0,0,0.1l-0.5-0.1
				v-1.4c0.6-0.6,1.1-1.4,1.3-2.4c0.3-0.1,0.6-0.6,0.7-1.2c0.1-0.7-0.1-1.3-0.4-1.5v-1.6c0-0.6-0.2-1.2-0.6-1.7L1059.5,176.9z"/>
		</g>
	</g>
	<g id="people3-1">
		
			<ellipse transform="matrix(7.138324e-02 -0.9974 0.9974 7.138324e-02 765.1166 1170.6813)" class="st26" cx="1011.3" cy="174.4" rx="16.1" ry="16.1"/>
		<g>
			<g>
				<polygon class="st54" points="1013.8,175.9 1013.8,175.9 1008.8,175.9 1008.8,175.9 1007.8,174.5 1008.8,174.3 1008.8,172 
					1013.8,172 1013.8,174.3 1014.8,174.5 				"/>
				<path class="st55" d="M1021.3,183.6h-20.1c0,0,0.5-5.4,0.5-5.8c0.1-0.4,0.2-1.4,1.1-1.8c0.1,0,0.1,0,0.2-0.1c0,0,0.1,0,0.1,0
					l5.2-1.5v0c0,0.8,1.4,1.5,3,1.5c1.7,0,3-0.7,3-1.5v0l5.2,1.5c0,0,0.1,0,0.1,0c0.1,0,0.1,0,0.2,0.1c0.9,0.4,1,1.3,1.1,1.8
					C1020.9,178.2,1021.3,183.6,1021.3,183.6z"/>
				<path class="st54" d="M1007.7,170.5c-0.1,0-0.2,0-0.3-0.1c-0.3-0.2-0.5-0.6-0.6-1.2c-0.1-0.8,0.1-1.5,0.5-1.5c0,0,0.1,0,0.1,0
					c0,0,0,0,0.1,0c0.1,0,0.2,0.1,0.3,0.1c0.2,0.2,0.4,0.6,0.5,1.1C1008.3,169.7,1008.1,170.4,1007.7,170.5z"/>
				<path class="st54" d="M1015.8,169.2c-0.1,0.6-0.4,1.1-0.7,1.2c-0.1,0-0.1,0-0.2,0c-0.4-0.1-0.7-0.8-0.5-1.5
					c0.1-0.5,0.3-0.9,0.5-1.1c0.1-0.1,0.2-0.1,0.3-0.2c0.1,0,0.1,0,0.2,0c0,0,0,0,0,0C1015.7,167.8,1016,168.4,1015.8,169.2z"/>
				<path class="st56" d="M1015.3,168.9c0,1.7-0.7,3.2-1.7,4.1c-0.7,0.6-1.5,1-2.4,1c-0.9,0-1.8-0.4-2.5-1.1c-0.9-0.9-1.5-2.4-1.5-4
					c0-2.8,1.8-5,4-5C1013.5,163.9,1015.3,166.1,1015.3,168.9z"/>
				<rect x="1005.2" y="178" class="st27" width="12.2" height="5.6"/>
				<polygon class="st57" points="1007.2,179.7 1005.4,179.7 1005.4,174.7 1007.2,174.1 				"/>
				<polygon class="st57" points="1015.4,179.7 1017.2,179.7 1017.2,174.7 1015.4,174.1 				"/>
				<path class="st58" d="M1006.9,178.8c0,0.3-0.3,0.6-0.6,0.6c-0.3,0-0.6-0.3-0.6-0.6c0-0.3,0.3-0.6,0.6-0.6
					C1006.7,178.2,1006.9,178.5,1006.9,178.8z"/>
				<path class="st58" d="M1016.9,178.8c0,0.3-0.3,0.6-0.6,0.6c-0.3,0-0.6-0.3-0.6-0.6c0-0.3,0.3-0.6,0.6-0.6
					C1016.6,178.2,1016.9,178.5,1016.9,178.8z"/>
				<path class="st27" d="M1015.5,166.1v1.7c0-0.1-0.2-0.1-0.7-0.2c0,0,0,0-0.1,0l-0.4,0.6c0,0,0,0,0,0c-0.3,0.4-0.3,0.5-0.6,0.5
					h-0.1c-0.2-0.1-1.2-0.2-2.4-0.2c-1.2,0-2.1,0.1-2.4,0.2h-0.1c-0.3,0-0.4-0.1-0.6-0.5c0,0,0,0,0,0l-0.4-0.6c0,0,0,0-0.1,0
					c-0.4,0.1-0.7,0.1-0.7,0.2v-1.7c0-1.8,1.9-3.1,4.2-3.1C1013.6,163.1,1015.5,164.3,1015.5,166.1z"/>
				<path class="st59" d="M1014.8,167.6C1014.8,167.6,1014.8,167.6,1014.8,167.6l-0.5,0.6c0,0,0,0,0,0c-0.3,0.4-0.3,0.5-0.6,0.5
					h-0.1c-0.2-0.1-1.2-0.2-2.4-0.2c-1.2,0-2.1,0.1-2.4,0.2h-0.1c-0.3,0-0.4-0.1-0.6-0.5c0,0,0,0,0,0l-0.4-0.6c0,0,0,0-0.1,0
					c0.7-0.1,2-0.2,3.5-0.2C1012.8,167.4,1014.1,167.5,1014.8,167.6z"/>
				<polygon class="st60" points="1005.2,183.6 1005.2,179.4 1004.6,183.6 				"/>
				<polygon class="st60" points="1017.4,183.6 1017.4,179.4 1017.9,183.6 				"/>
			</g>
			<path class="st23" d="M1027.2,176.9c-1.2,7.8-7.9,13.7-16,13.7c-1.2,0-2.3-0.1-3.4-0.4l-6.7-6.7h20.1c0,0-0.5-5.4-0.5-5.8
				c-0.1-0.4-0.2-1.4-1.1-1.8c0,0-0.1,0-0.2-0.1c0,0-0.1,0-0.1,0l-2.3-0.7v-0.5l-1.8-0.6v0.5l-1.1-0.3v0c0,0,0,0,0,0.1l-0.5-0.1
				v-1.4c0.6-0.6,1.1-1.4,1.3-2.4c0.3-0.1,0.6-0.6,0.7-1.2c0.1-0.7-0.1-1.3-0.4-1.5v-1.6c0-0.6-0.2-1.2-0.6-1.7L1027.2,176.9z"/>
		</g>
	</g>
	<g id="people2">
		
			<ellipse transform="matrix(7.138324e-02 -0.9974 0.9974 7.138324e-02 273.5921 583.7675)" class="st26" cx="450.3" cy="144.9" rx="29.2" ry="29.2"/>
		<g>
			<g>
				<polygon class="st54" points="454.9,147.6 454.9,147.5 445.8,147.5 445.8,147.6 443.9,145.2 445.8,144.7 445.8,140.5 
					454.9,140.5 454.9,144.7 456.7,145.2 				"/>
				<path class="st55" d="M468.5,161.5h-36.4c0,0,0.9-9.7,1-10.5c0.1-0.8,0.3-2.5,1.9-3.2c0.1,0,0.2-0.1,0.3-0.1
					c0.1,0,0.1,0,0.2-0.1l9.3-2.8v0.1c0,1.5,2.5,2.7,5.5,2.7c3,0,5.5-1.2,5.5-2.7v-0.1l9.3,2.8c0.1,0,0.1,0,0.2,0.1
					c0.1,0,0.2,0.1,0.3,0.1c1.6,0.7,1.8,2.4,1.9,3.2C467.7,151.8,468.5,161.5,468.5,161.5z"/>
				<path class="st54" d="M443.8,137.8c-0.2,0-0.4,0-0.6-0.1c-0.5-0.3-1-1.1-1.1-2.2c-0.2-1.4,0.2-2.6,1-2.8c0.1,0,0.1,0,0.2,0
					c0,0,0.1,0,0.1,0c0.2,0,0.3,0.1,0.5,0.3c0.4,0.4,0.8,1.1,0.9,2C445,136.4,444.5,137.7,443.8,137.8z"/>
				<path class="st54" d="M458.6,135.5c-0.2,1.2-0.7,2.1-1.4,2.3c-0.1,0-0.3,0.1-0.4,0c-0.7-0.1-1.2-1.4-1-2.8
					c0.1-0.8,0.5-1.6,0.9-2c0.1-0.1,0.3-0.2,0.5-0.3c0.1,0,0.3-0.1,0.4,0c0,0,0,0,0,0C458.4,132.9,458.8,134.1,458.6,135.5z"/>
				<path class="st56" d="M457.6,135c0,3-1.2,5.7-3,7.4c-1.2,1.1-2.7,1.8-4.3,1.8c-1.7,0-3.3-0.7-4.5-2c-1.7-1.7-2.8-4.3-2.8-7.2
					c0-5,3.3-9.1,7.3-9.1C454.3,125.8,457.6,129.9,457.6,135z"/>
				<rect x="439.2" y="151.4" class="st27" width="22.2" height="10.1"/>
				<polygon class="st57" points="443,154.5 439.7,154.5 439.7,145.4 443,144.4 				"/>
				<polygon class="st57" points="457.7,154.5 461,154.5 461,145.4 457.7,144.4 				"/>
				<path class="st58" d="M442.4,152.9c0,0.6-0.5,1.1-1.1,1.1c-0.6,0-1.1-0.5-1.1-1.1c0-0.6,0.5-1.1,1.1-1.1
					C442,151.9,442.4,152.3,442.4,152.9z"/>
				<path class="st58" d="M460.4,152.9c0,0.6-0.5,1.1-1.1,1.1c-0.6,0-1.1-0.5-1.1-1.1c0-0.6,0.5-1.1,1.1-1.1
					C459.9,151.9,460.4,152.3,460.4,152.9z"/>
				<path class="st27" d="M457.9,130v3c0-0.1-0.4-0.3-1.2-0.4c0,0-0.1,0-0.1,0l-0.7,1.1c0,0,0,0,0,0c-0.5,0.7-0.5,0.9-1.1,0.9h-0.1
					c-0.4-0.2-2.2-0.4-4.3-0.4c-2.1,0-3.9,0.2-4.3,0.4h-0.1c-0.6,0-0.7-0.2-1.1-0.9c0,0,0,0,0,0l-0.7-1.1c0,0-0.1,0-0.1,0
					c-0.8,0.1-1.2,0.2-1.2,0.4v-3c0-3.3,3.4-5.6,7.6-5.6C454.5,124.4,457.9,126.7,457.9,130z"/>
				<path class="st59" d="M456.7,132.6c0,0-0.1,0-0.1,0l-0.7,1.1c0,0,0,0,0,0c-0.5,0.7-0.5,0.9-1.1,0.9h-0.1
					c-0.4-0.2-2.2-0.4-4.3-0.4c-2.1,0-3.9,0.2-4.3,0.4h-0.1c-0.6,0-0.7-0.2-1.1-0.9c0,0,0,0,0,0l-0.7-1.1c0,0-0.1,0-0.1,0
					c1.3-0.3,3.7-0.4,6.4-0.4C453,132.2,455.3,132.4,456.7,132.6z"/>
				<polygon class="st60" points="439.2,161.5 439.2,154 438.3,161.5 				"/>
				<polygon class="st60" points="461.4,161.5 461.4,154 462.3,161.5 				"/>
			</g>
			<path class="st23" d="M479.2,149.4c-2.1,14-14.2,24.8-28.9,24.8c-2.1,0-4.2-0.2-6.1-0.6l-12.1-12.1h36.4c0,0-0.9-9.7-1-10.5
				c-0.1-0.8-0.3-2.5-1.9-3.2c-0.1,0-0.2-0.1-0.3-0.1c-0.1,0-0.1,0-0.2-0.1l-4.2-1.2v-0.9l-3.3-1v0.9l-1.9-0.6v0.1c0,0,0,0.1,0,0.1
				l-0.9-0.2v-2.6c1.1-1.1,2-2.6,2.4-4.4c0.6-0.2,1.1-1.1,1.3-2.2c0.2-1.2-0.1-2.3-0.7-2.7V130c0-1.2-0.4-2.2-1.1-3L479.2,149.4z"/>
		</g>
	</g>
	<g id="people1">
		
			<ellipse transform="matrix(7.138324e-02 -0.9974 0.9974 7.138324e-02 381.7639 483.0604)" class="st26" cx="450.3" cy="36.5" rx="29.2" ry="29.2"/>
		<g>
			<polygon class="st54" points="454.9,39.1 454.9,39.1 445.8,39.1 445.8,39.1 443.9,36.7 445.8,36.2 445.8,32 454.9,32 454.9,36.2 
				456.7,36.7 			"/>
			<path class="st55" d="M468.5,53h-36.4c0,0,0.9-9.7,1-10.5c0.1-0.8,0.3-2.5,1.9-3.2c0.1,0,0.2-0.1,0.3-0.1c0.1,0,0.1,0,0.2-0.1
				l9.3-2.8v0.1c0,1.5,2.5,2.7,5.5,2.7c3,0,5.5-1.2,5.5-2.7v-0.1l9.3,2.8c0.1,0,0.1,0,0.2,0.1c0.1,0,0.2,0.1,0.3,0.1
				c1.6,0.7,1.8,2.4,1.9,3.2C467.7,43.3,468.5,53,468.5,53z"/>
			<path class="st54" d="M443.8,29.3c-0.2,0-0.4,0-0.6-0.1c-0.5-0.3-1-1.1-1.1-2.2c-0.2-1.4,0.2-2.6,1-2.8c0.1,0,0.1,0,0.2,0
				c0,0,0.1,0,0.1,0c0.2,0,0.3,0.1,0.5,0.3c0.4,0.4,0.8,1.1,0.9,2C445,28,444.5,29.2,443.8,29.3z"/>
			<path class="st54" d="M458.6,27.1c-0.2,1.2-0.7,2.1-1.4,2.3c-0.1,0-0.3,0.1-0.4,0c-0.7-0.1-1.2-1.4-1-2.8c0.1-0.8,0.5-1.6,0.9-2
				c0.1-0.1,0.3-0.2,0.5-0.3c0.1,0,0.3-0.1,0.4,0c0,0,0,0,0,0C458.4,24.4,458.8,25.7,458.6,27.1z"/>
			<path class="st56" d="M457.6,26.5c0,3-1.2,5.7-3,7.4c-1.2,1.1-2.7,1.8-4.3,1.8c-1.7,0-3.3-0.7-4.5-2c-1.7-1.7-2.8-4.3-2.8-7.2
				c0-5,3.3-9.1,7.3-9.1C454.3,17.4,457.6,21.5,457.6,26.5z"/>
			<rect x="439.2" y="42.9" class="st27" width="22.2" height="10.1"/>
			<polygon class="st57" points="443,46.1 439.7,46.1 439.7,37 443,36 			"/>
			<polygon class="st57" points="457.7,46.1 461,46.1 461,37 457.7,36 			"/>
			<path class="st58" d="M442.4,44.5c0,0.6-0.5,1.1-1.1,1.1c-0.6,0-1.1-0.5-1.1-1.1c0-0.6,0.5-1.1,1.1-1.1
				C442,43.4,442.4,43.9,442.4,44.5z"/>
			<path class="st58" d="M460.4,44.5c0,0.6-0.5,1.1-1.1,1.1c-0.6,0-1.1-0.5-1.1-1.1c0-0.6,0.5-1.1,1.1-1.1
				C459.9,43.4,460.4,43.9,460.4,44.5z"/>
			<path class="st27" d="M457.9,21.5v3c0-0.1-0.4-0.3-1.2-0.4c0,0-0.1,0-0.1,0l-0.7,1.1c0,0,0,0,0,0c-0.5,0.7-0.5,0.9-1.1,0.9h-0.1
				c-0.4-0.2-2.2-0.4-4.3-0.4c-2.1,0-3.9,0.2-4.3,0.4h-0.1c-0.6,0-0.7-0.2-1.1-0.9c0,0,0,0,0,0l-0.7-1.1c0,0-0.1,0-0.1,0
				c-0.8,0.1-1.2,0.2-1.2,0.4v-3c0-3.3,3.4-5.6,7.6-5.6C454.5,16,457.9,18.2,457.9,21.5z"/>
			<path class="st59" d="M456.7,24.2c0,0-0.1,0-0.1,0l-0.7,1.1c0,0,0,0,0,0c-0.5,0.7-0.5,0.9-1.1,0.9h-0.1c-0.4-0.2-2.2-0.4-4.3-0.4
				c-2.1,0-3.9,0.2-4.3,0.4h-0.1c-0.6,0-0.7-0.2-1.1-0.9c0,0,0,0,0,0l-0.7-1.1c0,0-0.1,0-0.1,0c1.3-0.3,3.7-0.4,6.4-0.4
				C453,23.8,455.3,23.9,456.7,24.2z"/>
			<polygon class="st60" points="439.2,53 439.2,45.5 438.3,53 			"/>
			<polygon class="st60" points="461.4,53 461.4,45.5 462.3,53 			"/>
		</g>
		<path class="st23" d="M479.2,40.9c-2.1,14-14.2,24.8-28.9,24.8c-2.1,0-4.2-0.2-6.1-0.6L432.1,53h36.4c0,0-0.9-9.7-1-10.5
			c-0.1-0.8-0.3-2.5-1.9-3.2c-0.1,0-0.2-0.1-0.3-0.1c-0.1,0-0.1,0-0.2-0.1l-4.2-1.2V37l-3.3-1v0.9l-1.9-0.6v0.1c0,0,0,0.1,0,0.1
			l-0.9-0.2v-2.6c1.1-1.1,2-2.6,2.4-4.3c0.6-0.2,1.1-1.1,1.3-2.2c0.2-1.2-0.1-2.3-0.7-2.7v-2.9c0-1.2-0.4-2.2-1.1-3L479.2,40.9z"/>
	</g>
</g>
</svg>
